<?xml version="1.0" encoding="UTF-8"?>
<svg id="Layer_2" data-name="Layer 2" xmlns="http://www.w3.org/2000/svg" viewBox="0 0 570.41 1042">
  <defs>
    <style>
      .cls-1 {
        fill: #efcd62;
      }

      .cls-2 {
        fill: #bf752a;
      }

      .cls-3 {
        fill: #38441e;
      }

      .cls-4 {
        fill: #676b38;
      }

      .cls-5 {
        fill: #dbe09f;
      }

      .cls-6 {
        fill: #9ba152;
      }

      .cls-7 {
        fill: #e8b03e;
      }
    </style>
  </defs>
  <g id="Graphic_Elements" data-name="Graphic Elements">
    <g>
      <g>
        <path class="cls-6" d="m422.2,973.32c-11.01,2.61-22.8-2.59-30.5-10.87-4.55-4.89-8.33-11.06-14.59-13.41-6.97-2.62-14.64.41-22.03,1.4-5.38.72-11.11.27-15.83-2.42-3.61-2.06-7.41-6.34-7.94-10.6-.29-2.13.24-4.23,2.01-6.05,5.4-5.54,14.04-7.33,21.4-8.04,7.67-.77,15.54-.56,22.83,1.87,7.29,2.45,13.97,7.33,17.47,14.19,1.77,3.51,2.68,7.4,4.11,11.08.51,1.31,1.09,2.59,1.74,3.83,4.52,8.62,12.22,15.56,21.33,19.02Z"/>
        <path class="cls-4" d="m422.2,973.32c-11.01,2.61-22.8-2.59-30.5-10.87-4.55-4.89-8.33-11.06-14.59-13.41-6.97-2.62-14.64.41-22.03,1.4-5.38.72-11.11.27-15.83-2.42-3.61-2.06-7.41-6.34-7.94-10.6.9,1.36,1.87,3,3.03,3.77,2.73,1.79,6.05,2.49,9.3,2.86,5.4.61,10.89.48,16.24-.43,4.52-.77,8.98-2.08,13.56-2.27,6.66-.29,13.41,1.87,18.66,6,2.25,1.77,4.24,3.89,6.56,5.56.72.51,1.45.97,2.2,1.4,4.52,8.62,12.22,15.56,21.33,19.02Z"/>
      </g>
      <g>
        <g>
          <g>
            <path class="cls-1" d="m245.36,523.86c1.38,1.73,2.95,3.31,4.63,4.7,5.43,4.47,11.94,7.15,18.68,8.71,3.81-.07,7.61-.27,11.42-.61-.16-.03,3.35-.48,3.75-.56.25-.05.51-.11.76-.17,6.13-2.71,11.99-6.14,16.71-11.06,2.27-2.36,4.51-5,6.11-7.9,7.24-13.11-2.84-26.65-10.45-36.54-5.61-7.29-13.32-13.78-22.36-14.9-3.57-.44-7.3-.34-10.59,1.21-3.05,1.44-5.47,4.01-7.83,6.52-7.93,8.47-17.13,18.45-17.67,31.23-.2,4.59.89,9.09,2.86,13.17,1.08,2.22,2.42,4.31,3.97,6.21Z"/>
            <path class="cls-7" d="m249.99,528.57c5.43,4.47,11.94,7.15,18.68,8.71,3.81-.07,7.61-.27,11.42-.61-.16-.03,3.35-.48,3.75-.56.25-.05.51-.11.76-.17,6.13-2.71,11.99-6.14,16.71-11.06,2.27-2.36,4.51-5,6.11-7.9,1.33-2.4,2.22-4.97,2.3-7.72-4.58.41-9.24-.12-13.65-1.58-2.24-.75-4.5-1.78-6.1-3.62-1.32-1.53-2.09-3.5-3.04-5.31-2.61-4.99-6.62-8.95-10.1-13.31-3.48-4.34-6.58-9.5-6.71-15.21-.07,7.17-3.37,13.93-7.56,19.53-4.21,5.61-9.34,10.34-13.96,15.57-2.79,3.17-5.82,7.67-7.22,12.33,1.08,2.22,2.42,4.31,3.97,6.21,1.38,1.73,2.95,3.31,4.63,4.7Z"/>
          </g>
          <path class="cls-2" d="m249.99,528.57c5.43,4.47,11.94,7.15,18.68,8.71,3.81-.07,7.61-.27,11.42-.61-.16-.03,3.35-.48,3.75-.56.25-.05.51-.11.76-.17,6.13-2.71,11.99-6.14,16.71-11.06,2.27-2.36,4.51-5,6.11-7.9-.99-.22-2.01-.32-3.02-.35-3.59-.09-7.15.75-10.74.82-4.18.09-8.38-.87-12.17-2.76-2.81-1.41-5.45-3.34-8.49-3.97-4.42-.91-8.93,1.1-12.68,3.73-3.23,2.28-6.1,5.07-9.4,7.21-1.59,1.03-3.65,1.56-5.58,2.22,1.38,1.73,2.95,3.31,4.63,4.7Z"/>
        </g>
        <g>
          <g>
            <path class="cls-1" d="m358.96,555.89c-1.59,2.39-3.39,4.57-5.33,6.5-6.25,6.18-13.74,9.88-21.51,12.03-4.38-.09-8.76-.38-13.15-.84.18-.05-3.86-.67-4.31-.78-.29-.07-.58-.16-.88-.23-7.06-3.74-13.8-8.49-19.24-15.29-2.61-3.27-5.19-6.91-7.04-10.92-8.33-18.11,3.27-36.83,12.03-50.49,6.46-10.07,15.33-19.04,25.75-20.59,4.11-.61,8.41-.47,12.19,1.67,3.51,1.99,6.3,5.54,9.01,9.01,9.13,11.7,19.73,25.5,20.35,43.15.23,6.35-1.02,12.55-3.3,18.2-1.24,3.06-2.79,5.95-4.58,8.58Z"/>
            <path class="cls-7" d="m353.63,562.39c-6.25,6.18-13.74,9.88-21.51,12.03-4.38-.09-8.76-.38-13.15-.84.18-.05-3.86-.67-4.31-.78-.29-.07-.58-.16-.88-.23-7.06-3.74-13.8-8.49-19.24-15.29-2.61-3.27-5.19-6.91-7.04-10.92-1.53-3.32-2.56-6.86-2.65-10.66,5.28.57,10.64-.17,15.72-2.18,2.58-1.03,5.18-2.46,7.02-5,1.52-2.12,2.41-4.83,3.5-7.34,3-6.9,7.62-12.37,11.63-18.38,4.01-6,7.58-13.12,7.72-21.02.08,9.91,3.88,19.24,8.71,26.98,4.84,7.76,10.75,14.29,16.07,21.51,3.22,4.39,6.7,10.59,8.32,17.04-1.24,3.06-2.79,5.95-4.58,8.58-1.59,2.39-3.39,4.57-5.33,6.5Z"/>
          </g>
          <path class="cls-2" d="m353.63,562.39c-6.25,6.18-13.74,9.88-21.51,12.03-4.38-.09-8.76-.38-13.15-.84.18-.05-3.86-.67-4.31-.78-.29-.07-.58-.16-.88-.23-7.06-3.74-13.8-8.49-19.24-15.29-2.61-3.27-5.19-6.91-7.04-10.92,1.14-.31,2.31-.45,3.47-.48,4.13-.12,8.24,1.03,12.37,1.14,4.82.12,9.65-1.2,14.01-3.82,3.23-1.94,6.27-4.61,9.77-5.49,5.09-1.26,10.28,1.51,14.6,5.16,3.71,3.15,7.02,7,10.82,9.96,1.83,1.43,4.2,2.15,6.42,3.06-1.59,2.39-3.39,4.57-5.33,6.5Z"/>
        </g>
        <g>
          <g>
            <path class="cls-1" d="m261.08,524.48c-.15,4.57-2.33,8.74-5.23,12.47-1.59,2.03-3.39,3.94-5.2,5.73-3.75,3.67-8.08,6.61-12.69,9.11-4.02,1.23-8.08,2.31-12.19,3.2-2.07.45-4.16.84-6.26,1.22-.58.1-1.03.19-1.41.26-.41.01-.96.04-1.7.09-2.54.14-5.06.26-7.57.29-7.89-1.86-15.47-4.93-21.85-9.86-2.8-2.17-5.34-4.76-7.47-7.61-1.2-1.62-2.28-3.32-3.2-5.1-2.45-4.76-3.8-9.99-3.55-15.34.46-10.31,6.54-19.5,13.37-27.24,4.12-4.67,8.6-9.05,13.37-13.05,4.61-3.87,7.86-8.84,14.5-9.13,4.54-.2,8.96,1.81,12.51,4.65,3.55,2.84,6.36,6.48,9.13,10.09,5.64,7.31,11.28,14.63,16.9,21.95,3.07,3.99,6.21,8.08,7.76,12.86.61,1.87.84,3.67.78,5.42Z"/>
            <path class="cls-7" d="m261.08,524.48c-.15,4.57-2.33,8.74-5.23,12.47-1.59,2.03-3.39,3.94-5.2,5.73-3.75,3.67-8.08,6.61-12.69,9.11-4.02,1.23-8.08,2.31-12.19,3.2-2.07.45-4.16.84-6.26,1.22-.58.1-1.03.19-1.41.26-.41.01-.96.04-1.7.09-2.54.14-5.06.26-7.57.29-7.89-1.86-15.47-4.93-21.85-9.86-2.8-2.17-5.34-4.76-7.47-7.61-1.2-1.62-2.28-3.32-3.2-5.1,1.74-5.44,5.49-10.67,8.96-14.37,5.73-6.09,12.09-11.6,17.31-18.14,5.2-6.52,9.29-14.4,9.38-22.75.16,6.65,4,12.66,8.32,17.72,4.32,5.07,9.29,9.68,12.53,15.5,1.17,2.12,2.13,4.41,3.77,6.19,1.99,2.15,4.78,3.35,7.57,4.22,5.47,1.7,11.25,2.32,16.93,1.84Z"/>
          </g>
          <path class="cls-2" d="m255.84,536.95c-1.59,2.03-3.39,3.94-5.2,5.73-3.75,3.67-8.08,6.61-12.69,9.11-4.02,1.23-8.08,2.31-12.19,3.2-2.07.45-4.16.84-6.26,1.22-.58.1-1.03.19-1.41.26-.41.01-.96.04-1.7.09-2.54.14-5.06.26-7.57.29-7.89-1.86-15.47-4.93-21.85-9.86-2.8-2.17-5.34-4.76-7.47-7.61,5.18-1.75,10.12-5.28,15.19-7.63,7.09-3.29,15.3-4.35,22.84-2.33,9.02,2.42,17.77,9.12,26.71,6.41,3.29-1.01,7.03-3.2,9.82-1.17.78.58,1.33,1.41,1.78,2.31Z"/>
        </g>
        <g>
          <g>
            <path class="cls-1" d="m130.13,592.34c1.76,2.72,3.75,5.21,5.9,7.4,6.91,7.03,15.21,11.25,23.79,13.69,4.85-.11,9.69-.43,14.55-.96-.2-.05,4.27-.76,4.77-.88.32-.08.65-.18.97-.26,7.81-4.26,15.27-9.66,21.29-17.4,2.89-3.72,5.75-7.87,7.79-12.43,9.22-20.61-3.62-41.91-13.31-57.45-7.14-11.46-16.96-21.67-28.48-23.44-4.55-.7-9.3-.54-13.49,1.9-3.88,2.26-6.97,6.3-9.97,10.25-10.11,13.32-21.82,29.01-22.51,49.11-.25,7.22,1.13,14.29,3.65,20.71,1.37,3.48,3.08,6.77,5.06,9.77Z"/>
            <path class="cls-7" d="m136.03,599.74c6.91,7.03,15.21,11.25,23.79,13.69,4.85-.11,9.69-.43,14.55-.96-.2-.05,4.27-.76,4.77-.88.32-.08.65-.18.97-.26,7.81-4.26,15.27-9.66,21.29-17.4,2.89-3.72,5.75-7.87,7.79-12.43,1.7-3.78,2.83-7.81,2.93-12.13-5.84.65-11.78-.2-17.39-2.49-2.86-1.17-5.73-2.8-7.77-5.7-1.68-2.41-2.66-5.5-3.87-8.36-3.32-7.85-8.43-14.07-12.86-20.92-4.44-6.83-8.38-14.93-8.55-23.92-.09,11.27-4.29,21.9-9.63,30.71-5.36,8.83-11.9,16.26-17.78,24.48-3.56,4.99-7.41,12.06-9.2,19.4,1.37,3.48,3.08,6.77,5.06,9.77,1.76,2.72,3.75,5.21,5.9,7.4Z"/>
          </g>
          <path class="cls-2" d="m136.03,599.74c6.91,7.03,15.21,11.25,23.79,13.69,4.85-.11,9.69-.43,14.55-.96-.2-.05,4.27-.76,4.77-.88.32-.08.65-.18.97-.26,7.81-4.26,15.27-9.66,21.29-17.4,2.89-3.72,5.75-7.87,7.79-12.43-1.27-.35-2.56-.51-3.84-.55-4.57-.14-9.11,1.17-13.68,1.29-5.33.14-10.67-1.37-15.5-4.34-3.57-2.21-6.94-5.25-10.81-6.24-5.63-1.43-11.37,1.72-16.15,5.87-4.11,3.58-7.77,7.97-11.97,11.33-2.02,1.62-4.64,2.45-7.1,3.48,1.76,2.72,3.75,5.21,5.9,7.4Z"/>
        </g>
        <g>
          <g>
            <path class="cls-1" d="m342.45,601.71c2.11,2.19,4.39,4.11,6.75,5.74,7.62,5.23,16.01,7.61,24.35,8.31,4.44-.97,8.83-2.14,13.21-3.5-.2-.01,3.79-1.47,4.23-1.67.28-.13.56-.28.84-.41,6.41-5.32,12.31-11.63,16.45-19.83,1.99-3.94,3.87-8.27,4.93-12.83,4.77-20.62-10.87-37.9-22.58-50.46-8.63-9.26-19.5-16.88-30.42-16.44-4.31.18-8.66,1.18-12.06,4.18-3.16,2.78-5.28,7.05-7.33,11.22-6.9,14.07-14.86,30.62-11.87,49.23,1.07,6.69,3.61,12.94,7.08,18.39,1.89,2.96,4.05,5.68,6.41,8.07Z"/>
            <path class="cls-7" d="m349.2,607.45c7.62,5.23,16.01,7.61,24.35,8.31,4.44-.97,8.83-2.14,13.21-3.5-.2-.01,3.79-1.47,4.23-1.67.28-.13.56-.28.84-.41,6.41-5.32,12.31-11.63,16.45-19.83,1.99-3.94,3.87-8.27,4.93-12.83.88-3.78,1.2-7.69.51-11.69-5.25,1.64-10.87,1.94-16.44.84-2.84-.57-5.78-1.54-8.17-3.84-1.98-1.91-3.44-4.58-5.06-6.99-4.47-6.62-10.28-11.43-15.6-16.93-5.31-5.49-10.4-12.23-12.16-20.46,1.95,10.39,0,20.92-3.34,29.98-3.34,9.08-8.02,17.1-11.95,25.72-2.38,5.23-4.65,12.42-4.97,19.5,1.89,2.96,4.05,5.68,6.41,8.07,2.11,2.19,4.39,4.11,6.75,5.74Z"/>
          </g>
          <path class="cls-2" d="m349.2,607.45c7.62,5.23,16.01,7.61,24.35,8.31,4.44-.97,8.83-2.14,13.21-3.5-.2-.01,3.79-1.47,4.23-1.67.28-.13.56-.28.84-.41,6.41-5.32,12.31-11.63,16.45-19.83,1.99-3.94,3.87-8.27,4.93-12.83-1.23-.1-2.45,0-3.63.19-4.23.7-8.17,2.72-12.35,3.65-4.88,1.08-10.07.66-15.04-1.21-3.68-1.39-7.33-3.58-11.07-3.8-5.43-.3-10.15,3.63-13.8,8.31-3.14,4.03-5.72,8.73-8.97,12.58-1.57,1.86-3.83,3.09-5.91,4.48,2.11,2.19,4.39,4.11,6.75,5.74Z"/>
        </g>
        <g>
          <path class="cls-1" d="m444.26,733.08c-2.86,2.64-5.91,4.76-9.08,6.44-.75.4-1.51.75-2.28,1.08-7.57,3.4-15.72,4.16-23.38,2.5-3.41-.74-6.99-2.16-8.88-5.91-1.14-2.21-1.51-5.01-2.03-7.63-1.14-5.77-3.06-11.22-3.76-17.15-.64-5.51-.19-11.19,1.01-16.72.62-2.91,1.44-5.76,2.41-8.52l.02-.02c.21-.65.45-1.27.7-1.91,3.26-8.46,7.77-16.05,12.26-23.52,4.75-7.95,9.91-16.29,16.96-19.74,20.7-10.14,33.84,28.22,33.61,49.78-.16,16.06-7.33,31.94-17.54,41.33Z"/>
          <path class="cls-7" d="m443.6,726.67c-2.63,4.47-5.38,8.89-8.42,12.85-.75.4-1.51.75-2.28,1.08-7.57,3.4-15.72,4.16-23.38,2.5-3.41-.74-6.99-2.16-8.88-5.91-1.14-2.21-1.51-5.01-2.03-7.63-1.14-5.77-3.06-11.22-3.76-17.15-.64-5.51-.19-11.19,1.01-16.72.62-2.91,1.44-5.76,2.41-8.52l.02-.02c.31-.36.65-.71.96-1.05,7.09-7.57,14.29-14.94,21.6-22.11,2.64-2.59,5.4-5.24,8.51-6.39,3.12-1.17,6.72-.55,8.71,2.59,1.73,2.76,1.87,6.76,2.51,10.35,2.26,12.75,11.47,22.4,10.7,35.75-.43,7.54-4.06,14.27-7.67,20.38Z"/>
          <path class="cls-2" d="m432.9,740.6c-7.57,3.4-15.72,4.16-23.38,2.5-3.41-.74-6.99-2.16-8.88-5.91-1.14-2.21-1.51-5.01-2.03-7.63-1.14-5.77-3.06-11.22-3.76-17.15-.64-5.51-.19-11.19,1.01-16.72,4.25-2.36,9.94-.88,12.73,4.48,1.15,2.21,1.65,4.95,2.69,7.27,3.59,7.97,12.13,8.53,19.27,6.72,1.09-.27,2.29-.57,3.27.02.9.54,1.45,1.74,1.86,2.92,2.53,7.32,1.11,16.64-2.78,23.51Z"/>
        </g>
        <g>
          <path class="cls-1" d="m440.75,805.69c-2.86,2.41-5.93,4.33-9.1,5.84-.75.36-1.51.67-2.29.97-7.58,3.02-15.72,3.57-23.37,1.86-3.41-.76-6.97-2.16-8.84-5.71-1.13-2.09-1.48-4.71-1.99-7.18-1.12-5.42-3.01-10.55-3.68-16.11-.62-5.16-.13-10.47,1.09-15.62.64-2.71,1.47-5.35,2.45-7.91l.02-.02c.21-.6.46-1.18.71-1.77,3.3-7.85,7.84-14.85,12.36-21.74,4.78-7.34,9.98-15.03,17.03-18.12,20.73-9.06,33.67,27.08,33.35,47.23-.24,15.01-7.48,29.72-17.72,38.29Z"/>
          <path class="cls-7" d="m440.12,799.68c-2.65,4.12-5.42,8.21-8.48,11.85-.75.36-1.51.67-2.29.97-7.58,3.02-15.72,3.57-23.37,1.86-3.41-.76-6.97-2.16-8.84-5.71-1.13-2.09-1.48-4.71-1.99-7.18-1.12-5.42-3.01-10.55-3.68-16.11-.62-5.16-.13-10.47,1.09-15.62.64-2.71,1.47-5.35,2.45-7.91l.02-.02c.32-.33.65-.65.96-.96,7.11-6.93,14.34-13.68,21.68-20.24,2.65-2.37,5.42-4.79,8.53-5.8,3.12-1.03,6.71-.38,8.69,2.59,1.71,2.62,1.84,6.36,2.46,9.73,2.19,11.97,11.35,21.18,10.52,33.65-.46,7.04-4.12,13.26-7.76,18.91Z"/>
          <path class="cls-2" d="m429.36,812.49c-7.58,3.02-15.72,3.57-23.37,1.86-3.41-.76-6.97-2.16-8.84-5.71-1.13-2.09-1.48-4.71-1.99-7.18-1.12-5.42-3.01-10.55-3.68-16.11-.62-5.16-.13-10.47,1.09-15.62,4.25-2.12,9.94-.62,12.7,4.44,1.14,2.09,1.62,4.66,2.65,6.85,3.55,7.53,12.08,8.22,19.22,6.68,1.09-.23,2.29-.49,3.27.09.9.52,1.44,1.65,1.85,2.77,2.49,6.9,1.03,15.58-2.88,21.93Z"/>
        </g>
        <g>
          <path class="cls-1" d="m75.24,702.67c2.38,2.84,5.04,5.25,7.9,7.27.67.48,1.36.92,2.07,1.34,6.91,4.28,14.81,6.27,22.65,6,3.49-.12,7.25-.83,9.73-3.92,1.49-1.81,2.31-4.28,3.26-6.57,2.08-5.03,4.87-9.64,6.53-14.88,1.54-4.87,2.03-10.08,1.76-15.26-.13-2.73-.48-5.43-.97-8.07l-.02-.02c-.1-.62-.24-1.22-.37-1.84-1.82-8.17-5.02-15.73-8.21-23.2-3.37-7.94-7.09-16.3-13.47-20.54-18.74-12.47-38.01,20.07-41.35,39.57-2.49,14.52,1.97,30.02,10.49,40.13Z"/>
          <path class="cls-7" d="m76.94,696.98c1.86,4.45,3.84,8.89,6.19,12.95.67.48,1.36.92,2.07,1.34,6.91,4.28,14.81,6.27,22.65,6,3.49-.12,7.25-.83,9.73-3.92,1.49-1.81,2.31-4.28,3.26-6.57,2.08-5.03,4.87-9.64,6.53-14.88,1.54-4.87,2.03-10.08,1.76-15.26-.13-2.73-.48-5.43-.97-8.07l-.02-.02c-.25-.37-.52-.75-.77-1.1-5.74-7.97-11.63-15.77-17.66-23.42-2.18-2.76-4.46-5.59-7.34-7.13-2.88-1.56-6.53-1.58-9.01.94-2.16,2.22-2.96,5.8-4.18,8.94-4.32,11.15-15,18.39-16.44,30.57-.82,6.88,1.65,13.54,4.2,19.63Z"/>
          <path class="cls-2" d="m85.21,711.28c6.91,4.28,14.81,6.27,22.65,6,3.49-.12,7.25-.83,9.73-3.92,1.49-1.81,2.31-4.28,3.26-6.57,2.08-5.03,4.87-9.64,6.53-14.88,1.54-4.87,2.03-10.08,1.76-15.26-3.8-2.81-9.66-2.39-13.29,2-1.5,1.81-2.44,4.21-3.85,6.13-4.85,6.62-13.37,5.76-20.11,2.99-1.03-.42-2.17-.88-3.23-.5-.98.35-1.71,1.34-2.32,2.34-3.7,6.2-3.84,14.85-1.14,21.67Z"/>
        </g>
        <g>
          <path class="cls-1" d="m89.82,636.41c1.38,3.84,3.17,7.26,5.28,10.28.49.72,1.02,1.4,1.57,2.06,5.29,6.63,12.29,10.92,19.96,12.63,3.41.76,7.28.91,10.68-1.96,2.03-1.68,3.62-4.27,5.29-6.63,3.64-5.18,7.84-9.71,11.15-15.24,3.07-5.14,5.23-10.93,6.66-16.9.76-3.14,1.3-6.29,1.68-9.43v-.03c.09-.73.16-1.44.23-2.18.89-9.75.25-19.17-.41-28.47-.68-9.89-1.57-20.34-6.36-26.8-14.08-18.98-43.29,13.06-52.84,34.37-7.12,15.87-7.84,34.62-2.88,48.29Z"/>
          <path class="cls-7" d="m93.32,630.39c.35,5.54.83,11.09,1.78,16.31.49.72,1.02,1.4,1.57,2.06,5.29,6.63,12.29,10.92,19.96,12.63,3.41.76,7.28.91,10.68-1.96,2.03-1.68,3.62-4.27,5.29-6.63,3.64-5.18,7.84-9.71,11.15-15.24,3.07-5.14,5.23-10.93,6.66-16.9.76-3.14,1.3-6.29,1.68-9.43v-.03c-.13-.49-.27-.98-.4-1.45-2.96-10.53-6.12-20.91-9.47-31.15-1.21-3.7-2.5-7.5-4.79-9.99-2.28-2.51-5.81-3.47-9.02-1.24-2.81,1.97-4.75,5.84-6.95,9.09-7.8,11.56-20.48,17.06-25.83,30.53-3.03,7.6-2.8,15.81-2.31,23.39Z"/>
          <path class="cls-2" d="m96.67,648.75c5.29,6.63,12.29,10.92,19.96,12.63,3.41.76,7.28.91,10.68-1.96,2.03-1.68,3.62-4.27,5.29-6.63,3.64-5.18,7.84-9.71,11.15-15.24,3.07-5.14,5.23-10.93,6.66-16.9-2.76-4.17-8.57-5.19-13.51-1.13-2.04,1.68-3.73,4.16-5.71,5.98-6.84,6.28-14.8,3.12-20.42-1.76-.86-.74-1.81-1.56-2.96-1.4-1.06.14-2.09,1.08-3,2.06-5.59,6.1-8.53,15.89-8.14,24.34Z"/>
        </g>
        <g>
          <path class="cls-1" d="m441.51,642.97c-2.3,3.73-5.01,7.02-8.02,9.89-.71.68-1.45,1.32-2.21,1.94-7.39,6.24-16.36,10.01-25.66,11.14-4.14.51-8.71.37-12.19-2.75-2.08-1.83-3.49-4.54-5.02-7.02-3.35-5.46-7.47-10.29-10.38-16.07-2.69-5.37-4.19-11.32-4.81-17.39-.33-3.19-.41-6.39-.3-9.55v-.03c.02-.74.08-1.46.13-2.2.69-9.81,3.11-19.19,5.55-28.44,2.56-9.83,5.45-20.22,12.22-26.33,19.89-17.92,48.46,16.29,55.88,38.31,5.53,16.4,3.04,35.2-5.2,48.51Z"/>
          <path class="cls-7" d="m438.47,636.69c-1.4,5.51-2.95,11.03-4.99,16.17-.71.68-1.45,1.32-2.21,1.94-7.39,6.24-16.36,10.01-25.66,11.14-4.14.51-8.71.37-12.19-2.75-2.08-1.83-3.49-4.54-5.02-7.02-3.35-5.46-7.47-10.29-10.38-16.07-2.69-5.37-4.19-11.32-4.81-17.39-.33-3.19-.41-6.39-.3-9.55v-.03c.24-.48.5-.96.73-1.42,5.35-10.31,10.9-20.45,16.65-30.44,2.08-3.61,4.26-7.31,7.39-9.63,3.12-2.34,7.43-3.03,10.81-.57,2.94,2.18,4.53,6.19,6.53,9.61,7.1,12.14,20.99,18.58,24.88,32.45,2.2,7.83.47,16.02-1.45,23.56Z"/>
          <path class="cls-2" d="m431.28,654.8c-7.39,6.24-16.36,10.01-25.66,11.14-4.14.51-8.71.37-12.19-2.75-2.08-1.83-3.49-4.54-5.02-7.02-3.35-5.46-7.47-10.29-10.38-16.07-2.69-5.37-4.19-11.32-4.81-17.39,3.98-3.96,10.98-4.55,16.05-.12,2.1,1.83,3.64,4.43,5.64,6.41,6.91,6.79,16.81,4.22,24.27-.24,1.15-.68,2.4-1.43,3.72-1.18,1.21.22,2.26,1.24,3.15,2.28,5.48,6.52,7.18,16.53,5.22,24.94Z"/>
        </g>
        <g>
          <g>
            <path class="cls-1" d="m175.62,637.5c2.01,2.8,4.29,5.36,6.75,7.62,7.91,7.25,17.4,11.59,27.23,14.1,5.55-.11,11.09-.44,16.65-.99-.23-.05,4.89-.78,5.46-.91.37-.08.74-.18,1.11-.27,8.94-4.39,17.48-9.95,24.37-17.92,3.31-3.83,6.58-8.11,8.91-12.8,10.55-21.24-4.15-43.18-15.24-59.2-8.17-11.81-19.42-22.33-32.6-24.15-5.2-.72-10.65-.55-15.44,1.96-4.44,2.33-7.98,6.49-11.41,10.56-11.57,13.72-24.98,29.89-25.77,50.6-.29,7.44,1.3,14.72,4.17,21.33,1.57,3.59,3.53,6.98,5.79,10.06Z"/>
            <path class="cls-7" d="m182.37,645.12c7.91,7.25,17.4,11.59,27.23,14.1,5.55-.11,11.09-.44,16.65-.99-.23-.05,4.89-.78,5.46-.91.37-.08.74-.18,1.11-.27,8.94-4.39,17.48-9.95,24.37-17.92,3.31-3.83,6.58-8.11,8.91-12.8,1.94-3.89,3.24-8.05,3.36-12.5-6.68.67-13.48-.2-19.9-2.56-3.27-1.21-6.56-2.88-8.89-5.87-1.93-2.48-3.05-5.67-4.43-8.61-3.8-8.09-9.64-14.5-14.72-21.56-5.08-7.04-9.59-15.39-9.78-24.64-.1,11.62-4.91,22.56-11.02,31.64-6.13,9.09-13.62,16.76-20.35,25.23-4.07,5.14-8.49,12.42-10.53,19.98,1.57,3.59,3.53,6.98,5.79,10.06,2.01,2.8,4.29,5.36,6.75,7.62Z"/>
          </g>
          <path class="cls-2" d="m182.37,645.12c7.91,7.25,17.4,11.59,27.23,14.1,5.55-.11,11.09-.44,16.65-.99-.23-.05,4.89-.78,5.46-.91.37-.08.74-.18,1.11-.27,8.94-4.39,17.48-9.95,24.37-17.92,3.31-3.83,6.58-8.11,8.91-12.8-1.45-.36-2.93-.52-4.4-.56-5.23-.14-10.43,1.21-15.66,1.33-6.1.14-12.22-1.41-17.74-4.48-4.09-2.28-7.94-5.4-12.37-6.43-6.44-1.47-13.02,1.77-18.49,6.05-4.7,3.69-8.89,8.21-13.7,11.68-2.32,1.67-5.32,2.52-8.13,3.59,2.01,2.8,4.29,5.36,6.75,7.62Z"/>
        </g>
        <g>
          <g>
            <path class="cls-1" d="m181.27,942.85c3.66,2.66,7.81,5.09,12.28,7.23,14.39,6.87,31.67,10.99,49.56,13.38,10.1-.1,20.18-.42,30.3-.94-.42-.05,8.89-.74,9.94-.86.68-.08,1.35-.17,2.02-.26,16.26-4.16,31.81-9.44,44.34-17,6.02-3.63,11.97-7.69,16.22-12.14,19.2-20.14-7.54-40.95-27.72-56.14-14.88-11.2-35.33-21.17-59.32-22.9-9.47-.68-19.38-.53-28.09,1.86-8.08,2.21-14.52,6.16-20.76,10.02-21.05,13.01-45.46,28.35-46.89,47.99-.53,7.06,2.36,13.96,7.6,20.23,2.85,3.4,6.42,6.62,10.54,9.54Z"/>
            <path class="cls-7" d="m193.55,950.08c14.39,6.87,31.67,10.99,49.56,13.38,10.1-.1,20.18-.42,30.3-.94-.42-.05,8.89-.74,9.94-.86.68-.08,1.35-.17,2.02-.26,16.26-4.16,31.81-9.44,44.34-17,6.02-3.63,11.97-7.69,16.22-12.14,3.54-3.69,5.89-7.63,6.11-11.86-12.16.63-24.53-.19-36.22-2.43-5.95-1.15-11.94-2.73-16.19-5.57-3.5-2.35-5.55-5.37-8.06-8.17-6.91-7.67-17.55-13.75-26.79-20.44-9.24-6.67-17.46-14.59-17.8-23.37-.19,11.02-8.93,21.4-20.06,30.01-11.16,8.62-24.78,15.89-37.03,23.92-7.41,4.88-15.44,11.78-19.16,18.95,2.85,3.4,6.42,6.62,10.54,9.54,3.66,2.66,7.81,5.09,12.28,7.23Z"/>
          </g>
          <path class="cls-2" d="m193.55,950.08c14.39,6.87,31.67,10.99,49.56,13.38,10.1-.1,20.18-.42,30.3-.94-.42-.05,8.89-.74,9.94-.86.68-.08,1.35-.17,2.02-.26,16.26-4.16,31.81-9.44,44.34-17,6.02-3.63,11.97-7.69,16.22-12.14-2.64-.34-5.33-.5-8-.54-9.52-.13-18.98,1.15-28.5,1.26-11.1.13-22.23-1.34-32.28-4.25-7.44-2.16-14.45-5.13-22.51-6.1-11.72-1.4-23.69,1.68-33.64,5.74-8.56,3.5-16.19,7.78-24.93,11.07-4.22,1.59-9.67,2.39-14.79,3.4,3.66,2.66,7.81,5.09,12.28,7.23Z"/>
        </g>
        <g>
          <g>
            <path class="cls-1" d="m243.77,586.28c1.76,1.99,3.75,3.8,5.9,5.4,6.91,5.14,15.21,8.21,23.79,9.99,4.85-.08,9.69-.31,14.55-.7-.2-.04,4.27-.55,4.77-.64.32-.06.65-.13.97-.19,7.81-3.11,15.27-7.05,21.29-12.7,2.89-2.71,5.75-5.74,7.79-9.07,9.22-15.05-3.62-30.6-13.31-41.94-7.14-8.36-16.96-15.82-28.48-17.11-4.55-.51-9.3-.39-13.49,1.39-3.88,1.65-6.97,4.6-9.97,7.48-10.11,9.72-21.82,21.18-22.51,35.85-.25,5.27,1.13,10.43,3.65,15.12,1.37,2.54,3.08,4.94,5.06,7.13Z"/>
            <path class="cls-7" d="m249.66,591.68c6.91,5.14,15.21,8.21,23.79,9.99,4.85-.08,9.69-.31,14.55-.7-.2-.04,4.27-.55,4.77-.64.32-.06.65-.13.97-.19,7.81-3.11,15.27-7.05,21.29-12.7,2.89-2.71,5.75-5.74,7.79-9.07,1.7-2.76,2.83-5.7,2.93-8.86-5.84.47-11.78-.14-17.39-1.81-2.86-.86-5.73-2.04-7.77-4.16-1.68-1.76-2.66-4.01-3.87-6.1-3.32-5.73-8.43-10.27-12.86-15.27-4.44-4.99-8.38-10.9-8.55-17.46-.09,8.23-4.29,15.99-9.63,22.42-5.36,6.44-11.9,11.87-17.78,17.87-3.56,3.64-7.41,8.8-9.2,14.16,1.37,2.54,3.08,4.94,5.06,7.13,1.76,1.99,3.75,3.8,5.9,5.4Z"/>
          </g>
          <path class="cls-2" d="m249.66,591.68c6.91,5.14,15.21,8.21,23.79,9.99,4.85-.08,9.69-.31,14.55-.7-.2-.04,4.27-.55,4.77-.64.32-.06.65-.13.97-.19,7.81-3.11,15.27-7.05,21.29-12.7,2.89-2.71,5.75-5.74,7.79-9.07-1.27-.26-2.56-.37-3.84-.4-4.57-.1-9.11.86-13.68.94-5.33.1-10.67-1-15.5-3.17-3.57-1.61-6.94-3.83-10.81-4.56-5.63-1.04-11.37,1.26-16.15,4.29-4.11,2.61-7.77,5.82-11.97,8.27-2.02,1.19-4.64,1.79-7.1,2.54,1.76,1.99,3.75,3.8,5.9,5.4Z"/>
        </g>
        <g>
          <g>
            <path class="cls-1" d="m204.05,666.18c-.15,6.63-2.33,12.7-5.23,18.11-1.59,2.95-3.39,5.73-5.2,8.32-3.75,5.33-8.08,9.6-12.69,13.23-4.02,1.79-8.08,3.35-12.19,4.65-2.07.65-4.16,1.22-6.26,1.77-.58.15-1.03.27-1.41.38-.41.02-.96.06-1.7.13-2.54.21-5.06.38-7.57.42-7.89-2.7-15.47-7.16-21.85-14.32-2.8-3.16-5.34-6.91-7.47-11.06-1.2-2.36-2.28-4.82-3.2-7.41-2.45-6.91-3.8-14.51-3.55-22.28.46-14.97,6.54-28.33,13.37-39.57,4.12-6.78,8.6-13.14,13.37-18.95,4.61-5.62,7.86-12.85,14.5-13.27,4.54-.29,8.96,2.63,12.51,6.76,3.55,4.13,6.36,9.41,9.13,14.66,5.64,10.61,11.28,21.25,16.91,31.89,3.07,5.79,6.21,11.73,7.76,18.68.61,2.72.84,5.33.78,7.88Z"/>
            <path class="cls-7" d="m204.05,666.18c-.15,6.63-2.33,12.7-5.23,18.11-1.59,2.95-3.39,5.73-5.2,8.32-3.75,5.33-8.08,9.6-12.69,13.23-4.02,1.79-8.08,3.35-12.19,4.65-2.07.65-4.16,1.22-6.26,1.77-.58.15-1.03.27-1.41.38-.41.02-.96.06-1.7.13-2.54.21-5.06.38-7.57.42-7.89-2.7-15.47-7.16-21.85-14.32-2.8-3.16-5.34-6.91-7.47-11.06-1.2-2.36-2.28-4.82-3.2-7.41,1.74-7.9,5.49-15.5,8.96-20.87,5.73-8.85,12.09-16.85,17.31-26.35,5.2-9.48,9.29-20.91,9.38-33.04.16,9.67,4,18.39,8.32,25.74,4.32,7.37,9.29,14.07,12.53,22.51,1.17,3.07,2.13,6.4,3.77,8.99,1.99,3.12,4.78,4.87,7.57,6.13,5.47,2.46,11.25,3.37,16.93,2.67Z"/>
          </g>
          <path class="cls-2" d="m198.81,684.29c-1.59,2.95-3.39,5.73-5.2,8.32-3.75,5.33-8.08,9.6-12.69,13.23-4.02,1.79-8.08,3.35-12.19,4.65-2.07.65-4.16,1.22-6.26,1.77-.58.15-1.03.27-1.41.38-.41.02-.96.06-1.7.13-2.54.21-5.06.38-7.57.42-7.89-2.7-15.47-7.16-21.85-14.32-2.8-3.16-5.34-6.91-7.47-11.06,5.18-2.55,10.12-7.67,15.19-11.08,7.09-4.78,15.3-6.32,22.83-3.39,9.02,3.52,17.78,13.25,26.71,9.31,3.29-1.47,7.03-4.65,9.82-1.71.78.84,1.33,2.04,1.78,3.35Z"/>
        </g>
        <g>
          <g>
            <path class="cls-1" d="m166.66,745.51c-.16,5.83-2.54,11.15-5.69,15.91-1.73,2.59-3.69,5.03-5.66,7.31-4.08,4.68-8.78,8.43-13.8,11.62-4.37,1.57-8.78,2.94-13.26,4.09-2.25.57-4.53,1.07-6.81,1.55-.63.13-1.12.24-1.53.33-.44.02-1.04.06-1.84.11-2.76.18-5.5.33-8.23.37-8.58-2.37-16.83-6.29-23.76-12.58-3.04-2.77-5.8-6.07-8.12-9.71-1.31-2.07-2.48-4.24-3.48-6.51-2.66-6.07-4.13-12.74-3.86-19.57.5-13.15,7.11-24.88,14.54-34.76,4.48-5.96,9.35-11.54,14.54-16.65,5.01-4.94,8.55-11.28,15.77-11.65,4.94-.26,9.75,2.31,13.61,5.94,3.86,3.63,6.92,8.27,9.93,12.87,6.13,9.32,12.27,18.66,18.39,28.01,3.34,5.09,6.75,10.3,8.44,16.41.66,2.39.91,4.68.85,6.92Z"/>
            <path class="cls-7" d="m166.66,745.51c-.16,5.83-2.54,11.15-5.69,15.91-1.73,2.59-3.69,5.03-5.66,7.31-4.08,4.68-8.78,8.43-13.8,11.62-4.37,1.57-8.78,2.94-13.26,4.09-2.25.57-4.53,1.07-6.81,1.55-.63.13-1.12.24-1.53.33-.44.02-1.04.06-1.84.11-2.76.18-5.5.33-8.23.37-8.58-2.37-16.83-6.29-23.76-12.58-3.04-2.77-5.8-6.07-8.12-9.71-1.31-2.07-2.48-4.24-3.48-6.51,1.89-6.94,5.98-13.61,9.75-18.33,6.23-7.77,13.15-14.8,18.83-23.14,5.66-8.32,10.11-18.37,10.2-29.02.17,8.49,4.35,16.15,9.05,22.6,4.7,6.47,10.11,12.36,13.62,19.77,1.28,2.7,2.32,5.62,4.1,7.9,2.16,2.74,5.2,4.27,8.23,5.38,5.94,2.16,12.24,2.96,18.42,2.35Z"/>
          </g>
          <path class="cls-2" d="m160.97,761.42c-1.73,2.59-3.69,5.03-5.66,7.31-4.08,4.68-8.78,8.43-13.8,11.62-4.37,1.57-8.78,2.94-13.26,4.09-2.25.57-4.53,1.07-6.81,1.55-.63.13-1.12.24-1.53.33-.44.02-1.04.06-1.84.11-2.76.18-5.5.33-8.23.37-8.58-2.37-16.83-6.29-23.76-12.58-3.04-2.77-5.8-6.07-8.12-9.71,5.63-2.24,11.01-6.73,16.53-9.73,7.71-4.2,16.64-5.55,24.84-2.98,9.81,3.09,19.33,11.64,29.05,8.18,3.58-1.29,7.65-4.09,10.68-1.5.85.74,1.45,1.79,1.94,2.94Z"/>
        </g>
        <g>
          <g>
            <path class="cls-1" d="m378.84,636.18c-1.4,3.15-3.12,6.12-5.06,8.83-6.27,8.7-14.69,14.88-23.8,19.34-5.46,1.02-10.95,1.82-16.5,2.41.22-.1-4.94.23-5.53.22-.38,0-.76-.03-1.14-.04-9.64-2.48-19.13-6.2-27.5-12.61-4.01-3.08-8.09-6.6-11.32-10.73-14.64-18.66-4.7-43.12,2.91-61.06,5.61-13.22,14.48-25.8,27.02-30.26,4.95-1.76,10.31-2.7,15.51-1.21,4.82,1.38,9.13,4.74,13.31,8.03,14.11,11.09,30.53,24.2,35.5,44.32,1.79,7.23,1.72,14.68.24,21.74-.81,3.83-2.04,7.55-3.63,11.03Z"/>
            <path class="cls-7" d="m373.78,645.01c-6.27,8.7-14.69,14.88-23.8,19.34-5.46,1.02-10.95,1.82-16.5,2.41.22-.1-4.94.23-5.53.22-.38,0-.76-.03-1.14-.04-9.64-2.48-19.13-6.2-27.5-12.61-4.01-3.08-8.09-6.6-11.32-10.73-2.69-3.42-4.8-7.22-5.82-11.56,6.68-.7,13.16-2.93,18.97-6.55,2.96-1.85,5.84-4.15,7.52-7.55,1.38-2.82,1.84-6.17,2.59-9.33,2.08-8.69,6.5-16.15,10.04-24.1,3.54-7.92,6.27-17.01,4.58-26.11,2.46,11.35,9.38,21.1,17.21,28.74,7.85,7.66,16.73,13.65,25.04,20.57,5.03,4.21,10.83,10.44,14.37,17.43-.81,3.83-2.04,7.55-3.63,11.03-1.4,3.15-3.12,6.12-5.06,8.83Z"/>
          </g>
          <path class="cls-2" d="m373.78,645.01c-6.27,8.7-14.69,14.88-23.8,19.34-5.46,1.02-10.95,1.82-16.5,2.41.22-.1-4.94.23-5.53.22-.38,0-.76-.03-1.14-.04-9.64-2.48-19.13-6.2-27.5-12.61-4.01-3.08-8.09-6.6-11.32-10.73,1.34-.65,2.76-1.11,4.19-1.44,5.09-1.2,10.46-.93,15.6-1.87,6-1.1,11.68-3.86,16.46-7.98,3.54-3.06,6.68-6.9,10.81-8.81,6.01-2.75,13.11-.9,19.33,2.17,5.35,2.66,10.38,6.23,15.78,8.65,2.61,1.17,5.72,1.39,8.69,1.87-1.4,3.15-3.12,6.12-5.06,8.83Z"/>
        </g>
        <g>
          <g>
            <path class="cls-1" d="m330.23,675.86c-.18,7.17-2.94,13.72-6.59,19.57-2.01,3.19-4.27,6.19-6.56,8.99-4.73,5.76-10.17,10.38-15.98,14.29-5.06,1.93-10.17,3.62-15.36,5.03-2.61.71-5.24,1.32-7.89,1.91-.73.16-1.3.3-1.77.41-.51.02-1.21.07-2.14.14-3.2.23-6.37.41-9.53.46-9.94-2.91-19.49-7.74-27.53-15.48-3.53-3.41-6.72-7.47-9.41-11.95-1.52-2.55-2.87-5.21-4.04-8.01-3.09-7.47-4.79-15.68-4.47-24.08.58-16.18,8.24-30.61,16.84-42.77,5.19-7.33,10.83-14.2,16.84-20.48,5.81-6.08,9.9-13.88,18.26-14.34,5.72-.32,11.29,2.85,15.76,7.31,4.47,4.46,8.02,10.17,11.51,15.84,7.1,11.47,14.21,22.97,21.3,34.46,3.87,6.26,7.82,12.68,9.77,20.19.77,2.94,1.06,5.76.99,8.51Z"/>
            <path class="cls-7" d="m330.23,675.86c-.18,7.17-2.94,13.72-6.59,19.57-2.01,3.19-4.27,6.19-6.56,8.99-4.73,5.76-10.17,10.38-15.98,14.29-5.06,1.93-10.17,3.62-15.36,5.03-2.61.71-5.24,1.32-7.89,1.91-.73.16-1.3.3-1.77.41-.51.02-1.21.07-2.14.14-3.2.23-6.37.41-9.53.46-9.94-2.91-19.49-7.74-27.53-15.48-3.53-3.41-6.72-7.47-9.41-11.95-1.52-2.55-2.87-5.21-4.04-8.01,2.19-8.54,6.92-16.75,11.29-22.56,7.21-9.56,15.23-18.21,21.81-28.47,6.56-10.24,11.71-22.6,11.82-35.71.2,10.45,5.04,19.87,10.48,27.81,5.44,7.97,11.71,15.2,15.78,24.33,1.48,3.32,2.68,6.92,4.75,9.72,2.5,3.37,6.03,5.26,9.53,6.62,6.89,2.66,14.17,3.64,21.33,2.89Z"/>
          </g>
          <path class="cls-2" d="m323.63,695.43c-2.01,3.19-4.27,6.19-6.56,8.99-4.73,5.76-10.17,10.38-15.98,14.29-5.06,1.93-10.17,3.62-15.36,5.03-2.61.71-5.24,1.32-7.89,1.91-.73.16-1.3.3-1.77.41-.51.02-1.21.07-2.14.14-3.2.23-6.37.41-9.53.46-9.94-2.91-19.49-7.74-27.53-15.48-3.53-3.41-6.72-7.47-9.41-11.95,6.52-2.75,12.75-8.28,19.14-11.97,8.93-5.17,19.27-6.83,28.77-3.66,11.36,3.8,22.39,14.32,33.64,10.06,4.15-1.59,8.86-5.03,12.37-1.84.99.91,1.68,2.21,2.25,3.62Z"/>
        </g>
        <g>
          <path class="cls-1" d="m407.75,699.14c-3.09,3.27-6.5,6.02-10.14,8.31-.86.55-1.74,1.04-2.64,1.51-8.78,4.81-18.72,6.88-28.47,6.27-4.34-.26-9-1.24-11.96-4.98-1.78-2.2-2.7-5.14-3.79-7.88-2.38-6.02-5.67-11.57-7.53-17.83-1.72-5.81-2.11-11.98-1.56-18.1.28-3.22.82-6.4,1.55-9.51l.02-.03c.15-.73.35-1.43.54-2.16,2.61-9.59,6.91-18.42,11.2-27.12,4.53-9.26,9.51-19.01,17.64-23.8,23.88-14.06,46.54,25.1,49.89,48.27,2.5,17.26-3.7,35.41-14.73,47.05Z"/>
          <path class="cls-7" d="m405.85,692.36c-2.51,5.2-5.16,10.37-8.25,15.09-.86.55-1.74,1.04-2.64,1.51-8.78,4.81-18.72,6.88-28.47,6.27-4.34-.26-9-1.24-11.96-4.98-1.78-2.2-2.7-5.14-3.79-7.88-2.38-6.02-5.67-11.57-7.53-17.83-1.72-5.81-2.11-11.98-1.56-18.1.28-3.22.82-6.4,1.55-9.51l.02-.03c.33-.43.68-.86,1.01-1.27,7.48-9.21,15.14-18.23,22.98-27.05,2.83-3.19,5.79-6.45,9.44-8.16,3.65-1.74,8.21-1.63,11.19,1.44,2.6,2.7,3.45,6.97,4.84,10.72,4.93,13.33,17.93,22.28,19.23,36.73.74,8.16-2.62,15.94-6.05,23.06Z"/>
          <path class="cls-2" d="m394.96,708.96c-8.78,4.81-18.72,6.88-28.47,6.27-4.34-.26-9-1.24-11.96-4.98-1.78-2.2-2.7-5.14-3.79-7.88-2.38-6.02-5.67-11.57-7.53-17.83-1.72-5.81-2.11-11.98-1.56-18.1,4.85-3.19,12.14-2.47,16.48,2.85,1.8,2.2,2.87,5.06,4.54,7.39,5.77,8,16.42,7.29,24.93,4.26,1.31-.46,2.74-.97,4.05-.48,1.2.44,2.08,1.64,2.79,2.85,4.35,7.47,4.16,17.69.52,25.66Z"/>
        </g>
        <g>
          <g>
            <path class="cls-1" d="m345.68,798.18c1.76,3.06,3.76,5.86,5.9,8.33,6.92,7.92,15.23,12.66,23.82,15.41,4.85-.12,9.7-.48,14.57-1.08-.2-.06,4.28-.85,4.78-.99.32-.09.65-.2.97-.29,7.82-4.8,15.29-10.87,21.32-19.59,2.89-4.19,5.75-8.86,7.8-13.99,9.23-23.21-3.63-47.18-13.33-64.69-7.15-12.9-16.99-24.4-28.52-26.39-4.55-.79-9.32-.61-13.5,2.14-3.88,2.55-6.98,7.09-9.98,11.54-10.12,14.99-21.85,32.67-22.54,55.29-.25,8.13,1.13,16.09,3.65,23.31,1.37,3.92,3.09,7.62,5.07,11Z"/>
            <path class="cls-7" d="m351.58,806.51c6.92,7.92,15.23,12.66,23.82,15.41,4.85-.12,9.7-.48,14.57-1.08-.2-.06,4.28-.85,4.78-.99.32-.09.65-.2.97-.29,7.82-4.8,15.29-10.87,21.32-19.59,2.89-4.19,5.75-8.86,7.8-13.99,1.7-4.25,2.83-8.79,2.94-13.66-5.84.73-11.79-.22-17.41-2.8-2.86-1.32-5.74-3.15-7.78-6.41-1.68-2.71-2.67-6.19-3.88-9.41-3.32-8.84-8.44-15.84-12.88-23.56-4.44-7.69-8.39-16.81-8.56-26.93-.09,12.69-4.29,24.66-9.64,34.57-5.37,9.94-11.91,18.31-17.8,27.57-3.56,5.62-7.42,13.57-9.21,21.84,1.37,3.92,3.09,7.62,5.07,11,1.76,3.06,3.76,5.86,5.9,8.33Z"/>
          </g>
          <path class="cls-2" d="m351.58,806.51c6.92,7.92,15.23,12.66,23.82,15.41,4.85-.12,9.7-.48,14.57-1.08-.2-.06,4.28-.85,4.78-.99.32-.09.65-.2.97-.29,7.82-4.8,15.29-10.87,21.32-19.59,2.89-4.19,5.75-8.86,7.8-13.99-1.27-.4-2.56-.57-3.85-.62-4.58-.15-9.12,1.32-13.7,1.45-5.34.15-10.69-1.54-15.52-4.89-3.58-2.49-6.95-5.91-10.82-7.03-5.64-1.61-11.39,1.94-16.17,6.61-4.11,4.03-7.78,8.97-11.99,12.76-2.03,1.83-4.65,2.75-7.11,3.92,1.76,3.06,3.76,5.86,5.9,8.33Z"/>
        </g>
        <g>
          <g>
            <path class="cls-1" d="m268.52,728.26c-.17,6.75-2.74,12.92-6.15,18.42-1.87,3-3.99,5.83-6.12,8.46-4.41,5.42-9.49,9.77-14.91,13.45-4.72,1.82-9.49,3.41-14.33,4.73-2.44.66-4.89,1.24-7.36,1.8-.68.15-1.21.28-1.65.39-.48.02-1.12.06-1.99.13-2.98.21-5.95.39-8.89.43-9.27-2.74-18.18-7.28-25.68-14.57-3.29-3.21-6.27-7.03-8.78-11.25-1.41-2.4-2.67-4.91-3.77-7.54-2.88-7.03-4.46-14.76-4.17-22.66.55-15.23,7.68-28.81,15.71-40.25,4.84-6.9,10.11-13.37,15.71-19.28,5.42-5.72,9.24-13.07,17.04-13.49,5.33-.3,10.53,2.68,14.71,6.88,4.17,4.2,7.48,9.57,10.74,14.91,6.63,10.8,13.26,21.61,19.87,32.43,3.61,5.89,7.29,11.93,9.12,19,.72,2.76.99,5.42.92,8.01Z"/>
            <path class="cls-7" d="m268.52,728.26c-.17,6.75-2.74,12.92-6.15,18.42-1.87,3-3.99,5.83-6.12,8.46-4.41,5.42-9.49,9.77-14.91,13.45-4.72,1.82-9.49,3.41-14.33,4.73-2.44.66-4.89,1.24-7.36,1.8-.68.15-1.21.28-1.65.39-.48.02-1.12.06-1.99.13-2.98.21-5.95.39-8.89.43-9.27-2.74-18.18-7.28-25.68-14.57-3.29-3.21-6.27-7.03-8.78-11.25-1.41-2.4-2.67-4.91-3.77-7.54,2.05-8.03,6.46-15.77,10.53-21.23,6.73-9,14.21-17.14,20.35-26.8,6.12-9.64,10.92-21.27,11.02-33.61.19,9.83,4.7,18.7,9.78,26.18,5.08,7.5,10.92,14.31,14.72,22.9,1.38,3.13,2.5,6.51,4.43,9.15,2.33,3.17,5.62,4.95,8.89,6.23,6.42,2.51,13.22,3.43,19.9,2.72Z"/>
          </g>
          <path class="cls-2" d="m262.37,746.68c-1.87,3-3.99,5.83-6.12,8.46-4.41,5.42-9.49,9.77-14.91,13.45-4.72,1.82-9.49,3.41-14.33,4.73-2.44.66-4.89,1.24-7.36,1.8-.68.15-1.21.28-1.65.39-.48.02-1.12.06-1.99.13-2.98.21-5.95.39-8.89.43-9.27-2.74-18.18-7.28-25.68-14.57-3.29-3.21-6.27-7.03-8.78-11.25,6.08-2.59,11.89-7.8,17.86-11.27,8.33-4.86,17.98-6.43,26.84-3.45,10.6,3.58,20.89,13.47,31.39,9.47,3.87-1.5,8.26-4.73,11.54-1.74.92.86,1.57,2.08,2.1,3.41Z"/>
        </g>
        <g>
          <g>
            <path class="cls-1" d="m288.2,751.18c1.92,3.11,4.1,5.95,6.44,8.46,7.54,8.05,16.6,12.86,25.97,15.66,5.29-.12,10.58-.49,15.88-1.1-.22-.06,4.66-.87,5.21-1.01.35-.09.71-.2,1.06-.3,8.52-4.87,16.67-11.05,23.24-19.9,3.15-4.25,6.27-9,8.5-14.21,10.06-23.58-3.95-47.94-14.53-65.72-7.8-13.11-18.52-24.78-31.09-26.81-4.96-.8-10.16-.62-14.72,2.18-4.23,2.59-7.61,7.21-10.88,11.72-11.03,15.23-23.83,33.19-24.58,56.17-.28,8.26,1.24,16.34,3.98,23.68,1.5,3.98,3.36,7.75,5.53,11.17Z"/>
            <path class="cls-7" d="m294.63,759.64c7.54,8.05,16.6,12.86,25.97,15.66,5.29-.12,10.58-.49,15.88-1.1-.22-.06,4.66-.87,5.21-1.01.35-.09.71-.2,1.06-.3,8.52-4.87,16.67-11.05,23.24-19.9,3.15-4.25,6.27-9,8.5-14.21,1.85-4.32,3.09-8.93,3.2-13.88-6.37.74-12.85-.22-18.98-2.84-3.12-1.34-6.26-3.2-8.48-6.51-1.84-2.75-2.91-6.29-4.23-9.56-3.62-8.98-9.2-16.1-14.04-23.93-4.84-7.81-9.15-17.08-9.33-27.36-.1,12.89-4.68,25.05-10.51,35.12-5.85,10.1-12.99,18.6-19.4,28-3.88,5.71-8.09,13.79-10.04,22.18,1.5,3.98,3.36,7.75,5.53,11.17,1.92,3.11,4.1,5.95,6.44,8.46Z"/>
          </g>
          <path class="cls-2" d="m294.63,759.64c7.54,8.05,16.6,12.86,25.97,15.66,5.29-.12,10.58-.49,15.88-1.1-.22-.06,4.66-.87,5.21-1.01.35-.09.71-.2,1.06-.3,8.52-4.87,16.67-11.05,23.24-19.9,3.15-4.25,6.27-9,8.5-14.21-1.38-.4-2.8-.58-4.19-.63-4.99-.16-9.95,1.34-14.94,1.48-5.82.16-11.65-1.57-16.92-4.97-3.9-2.53-7.57-6-11.8-7.14-6.14-1.63-12.42,1.97-17.63,6.72-4.49,4.1-8.48,9.11-13.07,12.96-2.21,1.86-5.07,2.8-7.75,3.98,1.92,3.11,4.1,5.95,6.44,8.46Z"/>
        </g>
        <g>
          <path class="cls-1" d="m419.94,871.35c-3.31,2.5-6.75,4.43-10.25,5.84-.83.34-1.66.63-2.5.89-8.25,2.73-16.7,2.54-24.3-.22-3.39-1.23-6.84-3.22-8.21-7.53-.84-2.54-.8-5.62-.95-8.53-.32-6.41-1.47-12.55-1.31-19.07.16-6.06,1.47-12.16,3.51-18.01,1.07-3.08,2.33-6.06,3.73-8.93l.02-.02c.31-.68.65-1.32,1-1.98,4.59-8.77,10.33-16.43,16.03-23.97,6.03-8.03,12.56-16.43,20.28-19.29,22.69-8.4,30.45,34.86,27.03,58.21-2.54,17.4-12.24,33.73-24.07,42.63Z"/>
          <path class="cls-7" d="m420.22,864.31c-3.36,4.51-6.83,8.97-10.52,12.88-.83.34-1.66.63-2.5.89-8.25,2.73-16.7,2.54-24.3-.22-3.39-1.23-6.84-3.22-8.21-7.53-.84-2.54-.8-5.62-.95-8.53-.32-6.41-1.47-12.55-1.31-19.07.16-6.06,1.47-12.16,3.51-18.01,1.07-3.08,2.33-6.06,3.73-8.93l.02-.02c.38-.35.77-.69,1.14-1.02,8.37-7.32,16.83-14.41,25.38-21.27,3.09-2.48,6.3-5.01,9.66-5.86,3.36-.88,6.96.24,8.53,3.9,1.36,3.21.92,7.57,1.04,11.54.42,14.11,8.42,25.73,5.66,40.12-1.55,8.12-6.27,14.97-10.87,21.15Z"/>
          <path class="cls-2" d="m407.19,878.08c-8.25,2.73-16.7,2.54-24.3-.22-3.39-1.23-6.84-3.22-8.21-7.53-.84-2.54-.8-5.62-.95-8.53-.32-6.41-1.47-12.55-1.31-19.07.16-6.06,1.47-12.16,3.51-18.01,4.7-2.03,10.31.29,12.37,6.45.85,2.55.95,5.58,1.68,8.22,2.49,9.1,11.16,10.77,18.72,9.71,1.16-.15,2.43-.33,3.35.44.84.7,1.23,2.07,1.48,3.4,1.51,8.26-1.33,18.19-6.32,25.15Z"/>
        </g>
        <g>
          <g>
            <path class="cls-1" d="m330.56,784.79c-.18,7.17-2.94,13.72-6.59,19.57-2.01,3.19-4.27,6.19-6.56,8.99-4.73,5.76-10.17,10.38-15.98,14.29-5.06,1.93-10.17,3.62-15.36,5.03-2.61.71-5.24,1.32-7.89,1.91-.73.16-1.3.3-1.77.41-.51.02-1.21.07-2.14.14-3.2.23-6.37.41-9.53.46-9.94-2.91-19.49-7.74-27.53-15.48-3.52-3.41-6.72-7.47-9.41-11.95-1.52-2.55-2.87-5.21-4.04-8.01-3.09-7.47-4.79-15.68-4.47-24.08.58-16.18,8.24-30.61,16.84-42.77,5.19-7.33,10.83-14.2,16.84-20.48,5.81-6.08,9.9-13.88,18.26-14.34,5.72-.32,11.29,2.85,15.76,7.31,4.47,4.46,8.02,10.17,11.51,15.84,7.1,11.47,14.21,22.97,21.3,34.46,3.87,6.26,7.82,12.68,9.77,20.19.77,2.94,1.06,5.76.99,8.51Z"/>
            <path class="cls-7" d="m330.56,784.79c-.18,7.17-2.94,13.72-6.59,19.57-2.01,3.19-4.27,6.19-6.56,8.99-4.73,5.76-10.17,10.38-15.98,14.29-5.06,1.93-10.17,3.62-15.36,5.03-2.61.71-5.24,1.32-7.89,1.91-.73.16-1.3.3-1.77.41-.51.02-1.21.07-2.14.14-3.2.23-6.37.41-9.53.46-9.94-2.91-19.49-7.74-27.53-15.48-3.52-3.41-6.72-7.47-9.41-11.95-1.52-2.55-2.87-5.21-4.04-8.01,2.19-8.54,6.92-16.75,11.29-22.56,7.21-9.56,15.23-18.21,21.81-28.47,6.56-10.24,11.71-22.6,11.82-35.71.2,10.45,5.04,19.87,10.48,27.81,5.44,7.97,11.71,15.2,15.78,24.33,1.48,3.32,2.68,6.92,4.75,9.72,2.5,3.37,6.03,5.26,9.53,6.62,6.89,2.66,14.17,3.64,21.33,2.89Z"/>
          </g>
          <path class="cls-2" d="m323.97,804.36c-2.01,3.19-4.27,6.19-6.56,8.99-4.73,5.76-10.17,10.38-15.98,14.29-5.06,1.93-10.17,3.62-15.36,5.03-2.61.71-5.24,1.32-7.89,1.91-.73.16-1.3.3-1.77.41-.51.02-1.21.07-2.14.14-3.2.23-6.37.41-9.53.46-9.94-2.91-19.49-7.74-27.53-15.48-3.52-3.41-6.72-7.47-9.41-11.95,6.52-2.75,12.75-8.28,19.14-11.97,8.93-5.17,19.27-6.83,28.77-3.66,11.36,3.8,22.39,14.32,33.64,10.06,4.15-1.59,8.86-5.03,12.37-1.84.99.91,1.68,2.21,2.25,3.62Z"/>
        </g>
        <g>
          <g>
            <path class="cls-1" d="m212.88,781.98c-.17,6.04-2.74,11.55-6.15,16.48-1.87,2.68-3.99,5.21-6.12,7.57-4.41,4.85-9.49,8.74-14.91,12.03-4.72,1.63-9.49,3.05-14.33,4.23-2.44.59-4.89,1.11-7.36,1.61-.68.13-1.21.25-1.65.34-.48.02-1.12.06-1.99.11-2.98.19-5.95.34-8.89.38-9.27-2.45-18.18-6.51-25.68-13.03-3.29-2.87-6.27-6.28-8.78-10.06-1.41-2.15-2.67-4.39-3.77-6.74-2.88-6.28-4.46-13.2-4.17-20.27.55-13.62,7.68-25.77,15.71-36,4.84-6.17,10.1-11.96,15.71-17.24,5.42-5.12,9.24-11.69,17.04-12.07,5.33-.27,10.53,2.4,14.71,6.15,4.17,3.76,7.48,8.56,10.74,13.34,6.63,9.66,13.26,19.33,19.87,29.01,3.61,5.27,7.29,10.67,9.12,17,.72,2.47.99,4.85.92,7.17Z"/>
            <path class="cls-7" d="m212.88,781.98c-.17,6.04-2.74,11.55-6.15,16.48-1.87,2.68-3.99,5.21-6.12,7.57-4.41,4.85-9.49,8.74-14.91,12.03-4.72,1.63-9.49,3.05-14.33,4.23-2.44.59-4.89,1.11-7.36,1.61-.68.13-1.21.25-1.65.34-.48.02-1.12.06-1.99.11-2.98.19-5.95.34-8.89.38-9.27-2.45-18.18-6.51-25.68-13.03-3.29-2.87-6.27-6.28-8.78-10.06-1.41-2.15-2.67-4.39-3.77-6.74,2.05-7.19,6.46-14.1,10.53-18.99,6.73-8.05,14.21-15.33,20.35-23.97,6.12-8.62,10.92-19.03,11.02-30.06.19,8.79,4.7,16.73,9.78,23.41,5.08,6.71,10.92,12.8,14.72,20.48,1.38,2.8,2.5,5.82,4.43,8.18,2.33,2.84,5.62,4.43,8.89,5.58,6.42,2.24,13.22,3.07,19.9,2.43Z"/>
          </g>
          <path class="cls-2" d="m206.73,798.45c-1.87,2.68-3.99,5.21-6.12,7.57-4.41,4.85-9.49,8.74-14.91,12.03-4.72,1.63-9.49,3.05-14.33,4.23-2.44.59-4.89,1.11-7.36,1.61-.68.13-1.21.25-1.65.34-.48.02-1.12.06-1.99.11-2.98.19-5.95.34-8.89.38-9.27-2.45-18.18-6.51-25.68-13.03-3.29-2.87-6.27-6.28-8.78-10.06,6.08-2.32,11.89-6.97,17.86-10.08,8.33-4.35,17.98-5.75,26.84-3.08,10.6,3.2,20.89,12.05,31.39,8.47,3.87-1.34,8.26-4.23,11.54-1.55.92.77,1.57,1.86,2.1,3.05Z"/>
        </g>
        <g>
          <path class="cls-1" d="m100.56,863.05c4.23,2.43,8.59,4.19,12.99,5.37,1.04.29,2.08.51,3.14.7,10.35,2.09,20.79.85,30.04-3.18,4.12-1.79,8.28-4.46,9.74-9.5.9-2.97.68-6.45.71-9.76.04-7.28,1.14-14.37.58-21.73-.53-6.83-2.48-13.58-5.32-19.94-1.49-3.36-3.21-6.58-5.1-9.65l-.03-.02c-.42-.73-.88-1.41-1.34-2.12-6.16-9.37-13.68-17.33-21.13-25.17-7.9-8.35-16.42-17.06-26.13-19.36-28.52-6.76-35.75,43.09-30.25,69.08,4.09,19.36,16.97,36.66,32.1,45.29Z"/>
          <path class="cls-7" d="m99.84,855.12c4.4,4.7,8.93,9.32,13.72,13.3,1.04.29,2.08.51,3.14.7,10.35,2.09,20.79.85,30.04-3.18,4.12-1.79,8.28-4.46,9.74-9.5.9-2.97.68-6.45.71-9.76.04-7.28,1.14-14.37.58-21.73-.53-6.83-2.48-13.58-5.32-19.94-1.49-3.36-3.21-6.58-5.1-9.65l-.03-.02c-.48-.35-.99-.69-1.46-1.01-10.75-7.27-21.6-14.26-32.55-20.99-3.96-2.43-8.06-4.9-12.26-5.46-4.21-.59-8.59,1.11-10.34,5.44-1.5,3.8-.72,8.67-.65,13.17.25,16-9,30.11-4.81,46.05,2.37,9,8.57,16.17,14.59,22.6Z"/>
          <path class="cls-2" d="m116.69,869.12c10.35,2.09,20.79.85,30.04-3.18,4.12-1.79,8.28-4.46,9.74-9.5.9-2.97.68-6.45.71-9.76.04-7.28,1.14-14.37.58-21.73-.53-6.83-2.48-13.58-5.32-19.94-5.92-1.73-12.73,1.57-14.94,8.79-.92,2.98-.88,6.42-1.62,9.5-2.58,10.59-13.21,13.52-22.62,13.24-1.44-.03-3.03-.08-4.11.9-1,.89-1.4,2.48-1.64,4.02-1.41,9.52,2.64,20.41,9.19,27.68Z"/>
        </g>
        <g>
          <g>
            <path class="cls-1" d="m301.81,866.95c1.72,3.11,3.68,5.95,5.78,8.46,6.78,8.05,14.91,12.86,23.34,15.66,4.76-.12,9.5-.49,14.27-1.1-.2-.06,4.19-.87,4.68-1.01.32-.09.63-.2.95-.3,7.66-4.87,14.98-11.05,20.88-19.9,2.83-4.25,5.64-9,7.64-14.21,9.04-23.58-3.55-47.94-13.06-65.72-7.01-13.11-16.64-24.78-27.94-26.81-4.46-.8-9.13-.62-13.23,2.18-3.81,2.59-6.84,7.21-9.78,11.72-9.91,15.23-21.41,33.19-22.08,56.17-.25,8.26,1.11,16.34,3.58,23.68,1.34,3.98,3.02,7.75,4.96,11.17Z"/>
            <path class="cls-7" d="m307.59,875.41c6.78,8.05,14.91,12.86,23.34,15.66,4.76-.12,9.5-.49,14.27-1.1-.2-.06,4.19-.87,4.68-1.01.32-.09.63-.2.95-.3,7.66-4.87,14.98-11.05,20.88-19.9,2.83-4.25,5.64-9,7.64-14.21,1.66-4.32,2.77-8.93,2.88-13.88-5.72.74-11.55-.22-17.06-2.84-2.8-1.34-5.62-3.2-7.62-6.51-1.65-2.75-2.61-6.29-3.8-9.56-3.26-8.98-8.27-16.1-12.62-23.93-4.35-7.81-8.22-17.08-8.38-27.36-.09,12.89-4.21,25.05-9.45,35.12-5.26,10.1-11.67,18.6-17.44,28-3.49,5.71-7.27,13.79-9.02,22.18,1.34,3.98,3.02,7.75,4.96,11.17,1.72,3.11,3.68,5.95,5.78,8.46Z"/>
          </g>
          <path class="cls-2" d="m307.59,875.41c6.78,8.05,14.91,12.86,23.34,15.66,4.76-.12,9.5-.49,14.27-1.1-.2-.06,4.19-.87,4.68-1.01.32-.09.63-.2.95-.3,7.66-4.87,14.98-11.05,20.88-19.9,2.83-4.25,5.64-9,7.64-14.21-1.24-.4-2.51-.58-3.77-.63-4.48-.16-8.94,1.34-13.42,1.48-5.23.16-10.47-1.57-15.2-4.97-3.5-2.53-6.81-6-10.6-7.14-5.52-1.63-11.16,1.97-15.84,6.72-4.03,4.1-7.62,9.11-11.74,12.96-1.99,1.86-4.56,2.8-6.97,3.98,1.72,3.11,3.68,5.95,5.78,8.46Z"/>
        </g>
        <g>
          <g>
            <path class="cls-1" d="m278.18,830.79c-.17,5.99-2.74,11.47-6.15,16.36-1.87,2.66-3.99,5.17-6.12,7.51-4.41,4.81-9.49,8.68-14.91,11.95-4.72,1.62-9.49,3.02-14.33,4.2-2.44.59-4.89,1.1-7.36,1.6-.68.13-1.21.25-1.65.34-.48.02-1.12.06-1.99.11-2.98.19-5.95.34-8.89.38-9.27-2.44-18.18-6.47-25.68-12.94-3.29-2.85-6.27-6.24-8.78-9.99-1.41-2.13-2.67-4.36-3.77-6.7-2.88-6.24-4.46-13.11-4.17-20.13.55-13.53,7.69-25.59,15.71-35.75,4.84-6.13,10.1-11.87,15.71-17.12,5.42-5.08,9.24-11.61,17.04-11.99,5.33-.27,10.53,2.38,14.71,6.11,4.17,3.73,7.48,8.5,10.74,13.24,6.63,9.59,13.26,19.2,19.87,28.8,3.61,5.23,7.29,10.6,9.12,16.87.72,2.45.99,4.81.92,7.12Z"/>
            <path class="cls-7" d="m278.18,830.79c-.17,5.99-2.74,11.47-6.15,16.36-1.87,2.66-3.99,5.17-6.12,7.51-4.41,4.81-9.49,8.68-14.91,11.95-4.72,1.62-9.49,3.02-14.33,4.2-2.44.59-4.89,1.1-7.36,1.6-.68.13-1.21.25-1.65.34-.48.02-1.12.06-1.99.11-2.98.19-5.95.34-8.89.38-9.27-2.44-18.18-6.47-25.68-12.94-3.29-2.85-6.27-6.24-8.78-9.99-1.41-2.13-2.67-4.36-3.77-6.7,2.05-7.13,6.46-14,10.53-18.85,6.73-7.99,14.21-15.22,20.35-23.8,6.12-8.56,10.92-18.89,11.02-29.85.19,8.73,4.7,16.61,9.78,23.25,5.08,6.66,10.92,12.71,14.72,20.34,1.38,2.78,2.5,5.78,4.43,8.12,2.33,2.82,5.62,4.39,8.89,5.54,6.42,2.23,13.22,3.04,19.9,2.42Z"/>
          </g>
          <path class="cls-2" d="m272.03,847.15c-1.87,2.66-3.99,5.17-6.12,7.51-4.41,4.81-9.49,8.68-14.91,11.95-4.72,1.62-9.49,3.02-14.33,4.2-2.44.59-4.89,1.1-7.36,1.6-.68.13-1.21.25-1.65.34-.48.02-1.12.06-1.99.11-2.98.19-5.95.34-8.89.38-9.27-2.44-18.18-6.47-25.68-12.94-3.29-2.85-6.27-6.24-8.78-9.99,6.08-2.3,11.89-6.93,17.86-10.01,8.33-4.32,17.98-5.71,26.84-3.06,10.6,3.18,20.89,11.97,31.39,8.41,3.87-1.33,8.26-4.2,11.54-1.54.92.76,1.57,1.85,2.1,3.02Z"/>
        </g>
        <g>
          <g>
            <path class="cls-1" d="m232.15,915.4c2.01,2.76,4.29,5.28,6.75,7.51,7.91,7.14,17.4,11.42,27.23,13.89,5.55-.11,11.09-.43,16.65-.97-.23-.05,4.89-.77,5.46-.9.37-.08.74-.18,1.11-.27,8.94-4.32,17.48-9.8,24.37-17.66,3.31-3.77,6.58-7.99,8.91-12.61,10.55-20.92-4.15-42.54-15.24-58.32-8.17-11.63-19.42-21.99-32.6-23.79-5.2-.71-10.65-.55-15.44,1.93-4.44,2.3-7.98,6.39-11.41,10.4-11.57,13.52-24.98,29.45-25.77,49.85-.29,7.33,1.3,14.5,4.17,21.02,1.57,3.54,3.53,6.87,5.79,9.91Z"/>
            <path class="cls-7" d="m238.9,922.9c7.91,7.14,17.4,11.42,27.23,13.89,5.55-.11,11.09-.43,16.65-.97-.23-.05,4.89-.77,5.46-.9.37-.08.74-.18,1.11-.27,8.94-4.32,17.48-9.8,24.37-17.66,3.31-3.77,6.58-7.99,8.91-12.61,1.94-3.83,3.24-7.93,3.36-12.32-6.68.66-13.48-.2-19.9-2.52-3.27-1.19-6.56-2.84-8.89-5.78-1.93-2.44-3.05-5.58-4.43-8.48-3.8-7.97-9.64-14.28-14.72-21.24-5.08-6.93-9.59-15.16-9.78-24.28-.1,11.44-4.91,22.23-11.02,31.17-6.13,8.96-13.62,16.51-20.35,24.85-4.07,5.07-8.49,12.24-10.53,19.69,1.57,3.54,3.53,6.87,5.79,9.91,2.01,2.76,4.29,5.28,6.75,7.51Z"/>
          </g>
          <path class="cls-2" d="m238.9,922.9c7.91,7.14,17.4,11.42,27.23,13.89,5.55-.11,11.09-.43,16.65-.97-.23-.05,4.89-.77,5.46-.9.37-.08.74-.18,1.11-.27,8.94-4.32,17.48-9.8,24.37-17.66,3.31-3.77,6.58-7.99,8.91-12.61-1.45-.36-2.93-.52-4.4-.56-5.23-.14-10.43,1.19-15.66,1.31-6.1.14-12.22-1.39-17.74-4.41-4.09-2.24-7.94-5.32-12.37-6.34-6.44-1.45-13.02,1.75-18.49,5.96-4.7,3.64-8.89,8.09-13.7,11.5-2.32,1.65-5.32,2.48-8.13,3.54,2.01,2.76,4.29,5.28,6.75,7.51Z"/>
        </g>
        <g>
          <g>
            <path class="cls-1" d="m238.64,885.75c.72,6.77-1.16,13.3-4.01,19.29-1.57,3.26-3.41,6.38-5.29,9.32-3.91,6.04-8.66,11.09-13.85,15.53-4.71,2.48-9.5,4.73-14.4,6.73-2.47,1-4.96,1.92-7.48,2.82-.69.24-1.23.45-1.68.62-.5.09-1.17.22-2.07.41-3.1.63-6.19,1.21-9.27,1.67-10.09-1.45-20.04-4.76-28.87-11-3.88-2.76-7.51-6.16-10.7-10.03-1.8-2.2-3.46-4.54-4.95-7.02-3.95-6.63-6.64-14.15-7.39-22.09-1.45-15.31,4.24-29.89,11.14-42.45,4.16-7.57,8.83-14.78,13.92-21.47,4.92-6.48,7.95-14.36,16.08-15.87,5.55-1.04,11.4,1.21,16.34,4.83,4.94,3.62,9.12,8.54,13.24,13.42,8.38,9.88,16.77,19.78,25.14,29.68,4.57,5.39,9.23,10.92,12.08,17.74,1.12,2.67,1.76,5.28,2.03,7.89Z"/>
            <path class="cls-7" d="m238.64,885.75c.72,6.77-1.16,13.3-4.01,19.29-1.57,3.26-3.41,6.38-5.29,9.32-3.91,6.04-8.66,11.09-13.85,15.53-4.71,2.48-9.5,4.73-14.4,6.73-2.47,1-4.96,1.92-7.48,2.82-.69.24-1.23.45-1.68.62-.5.09-1.17.22-2.07.41-3.1.63-6.19,1.21-9.27,1.67-10.09-1.45-20.04-4.76-28.87-11-3.88-2.76-7.51-6.16-10.7-10.03-1.8-2.2-3.46-4.54-4.95-7.02,1.08-8.32,4.68-16.67,8.23-22.7,5.87-9.94,12.63-19.12,17.79-29.64,5.14-10.49,8.63-22.8,7.11-35.16,1.5,9.81,7.41,18.06,13.73,24.83,6.32,6.79,13.36,12.8,18.48,20.86,1.86,2.94,3.49,6.17,5.86,8.53,2.87,2.85,6.55,4.17,10.16,5,7.07,1.61,14.32,1.59,21.24-.05Z"/>
          </g>
          <path class="cls-2" d="m234.63,905.04c-1.57,3.26-3.41,6.38-5.29,9.32-3.91,6.04-8.66,11.09-13.85,15.53-4.71,2.48-9.5,4.73-14.4,6.73-2.47,1-4.96,1.92-7.48,2.82-.69.24-1.23.45-1.68.62-.5.09-1.17.22-2.07.41-3.1.63-6.19,1.21-9.27,1.67-10.09-1.45-20.04-4.76-28.87-11-3.88-2.76-7.51-6.16-10.7-10.03,6.04-3.44,11.44-9.46,17.24-13.76,8.09-6.02,18-8.93,27.69-7.18,11.59,2.1,23.7,10.57,34.18,5.11,3.86-2.04,8.04-5.89,11.87-3.34,1.08.73,1.92,1.86,2.65,3.12Z"/>
        </g>
        <g>
          <path class="cls-1" d="m389.53,926.13c-3.37,1.81-6.91,3.15-10.55,4.07-.86.22-1.73.4-2.61.55-8.63,1.67-17.66.95-25.96-1.8-3.7-1.22-7.51-3.08-9.27-6.67-1.06-2.12-1.23-4.62-1.58-7.01-.77-5.23-2.41-10.31-2.67-15.6-.24-4.92.75-9.8,2.54-14.42.94-2.44,2.08-4.78,3.38-7.02h.02c.29-.54.61-1.04.93-1.56,4.31-6.83,9.93-12.68,15.51-18.43,5.9-6.13,12.31-12.52,20.36-14.34,23.66-5.32,34.83,30.39,32.75,49.16-1.55,13.98-10.81,26.62-22.85,33.07Z"/>
          <path class="cls-7" d="m389.35,920.42c-3.28,3.45-6.69,6.84-10.37,9.78-.86.22-1.73.4-2.61.55-8.63,1.67-17.66.95-25.96-1.8-3.7-1.22-7.51-3.08-9.27-6.67-1.06-2.12-1.23-4.62-1.58-7.01-.77-5.23-2.41-10.31-2.67-15.6-.24-4.92.75-9.8,2.54-14.42.94-2.44,2.08-4.78,3.38-7.02h.02c.38-.27.77-.53,1.15-.77,8.45-5.4,17.01-10.6,25.67-15.61,3.13-1.81,6.39-3.65,9.92-4.12,3.53-.49,7.44.66,9.37,3.74,1.66,2.71,1.48,6.22,1.88,9.46,1.39,11.51,10.71,21.5,8.72,33.01-1.12,6.5-5.69,11.76-10.19,16.48Z"/>
          <path class="cls-2" d="m376.37,930.76c-8.63,1.67-17.66.95-25.96-1.8-3.7-1.22-7.51-3.08-9.27-6.67-1.06-2.12-1.23-4.62-1.58-7.01-.77-5.23-2.41-10.31-2.67-15.6-.24-4.92.75-9.8,2.54-14.42,4.88-1.34,11.02.92,13.63,6.07,1.08,2.13,1.39,4.6,2.34,6.8,3.27,7.57,12.63,9.51,20.64,9.15,1.23-.05,2.58-.11,3.6.58.94.63,1.45,1.76,1.8,2.86,2.16,6.82-.2,14.71-5.07,20.04Z"/>
        </g>
        <g>
          <path class="cls-1" d="m328.5,948.17c-3.23.41-6.41.38-9.5-.02-.73-.09-1.45-.22-2.18-.37-7.15-1.35-13.71-4.75-18.96-9.55-2.34-2.14-4.53-4.82-4.52-8.27-.01-2.04.8-4.11,1.42-6.13,1.38-4.45,2.03-9.06,3.81-13.4,1.66-4.03,4.23-7.65,7.31-10.82,1.62-1.67,3.36-3.2,5.18-4.6h.02c.41-.34.84-.64,1.28-.96,5.81-4.15,12.25-7.11,18.61-10,6.75-3.09,13.99-6.24,20.75-5.19,19.88,3.1,15,35.34,6.41,49.8-6.4,10.77-18.12,18.06-29.63,19.5Z"/>
          <path class="cls-7" d="m330.49,943.52c-3.77,1.75-7.61,3.42-11.5,4.64-.73-.09-1.45-.22-2.18-.37-7.15-1.35-13.71-4.75-18.96-9.55-2.34-2.14-4.53-4.82-4.52-8.27-.01-2.04.8-4.11,1.42-6.13,1.38-4.45,2.03-9.06,3.81-13.4,1.66-4.03,4.23-7.65,7.31-10.82,1.62-1.67,3.36-3.2,5.18-4.6h.02c.38-.09.78-.18,1.15-.25,8.4-1.71,16.82-3.23,25.25-4.56,3.05-.48,6.2-.95,9.04-.22,2.86.71,5.38,2.85,5.69,5.94.25,2.7-1.2,5.47-2.11,8.2-3.24,9.7.07,20.65-5.73,29.31-3.27,4.89-8.7,7.7-13.86,10.09Z"/>
          <path class="cls-2" d="m316.82,947.79c-7.15-1.35-13.71-4.75-18.96-9.55-2.34-2.14-4.53-4.82-4.52-8.27-.01-2.04.8-4.11,1.42-6.13,1.38-4.45,2.03-9.06,3.81-13.4,1.66-4.03,4.23-7.65,7.31-10.82,4.19.45,7.99,4.19,8.04,9.15.02,2.05-.67,4.14-.77,6.21-.36,7.11,6,11.6,12.19,13.81.95.34,1.99.72,2.51,1.59.48.8.44,1.87.29,2.87-.91,6.16-5.65,11.78-11.32,14.55Z"/>
        </g>
        <g>
          <path class="cls-1" d="m128.8,922.39c2.48,1.41,5.03,2.44,7.62,3.12.61.17,1.22.3,1.84.41,6.08,1.22,12.24.51,17.71-1.83,2.44-1.04,4.9-2.59,5.8-5.51.55-1.73.44-3.74.48-5.67.07-4.23.76-8.34.48-12.61-.26-3.96-1.37-7.88-3-11.58-.86-1.95-1.85-3.82-2.94-5.61h-.02c-.24-.43-.51-.83-.78-1.24-3.56-5.44-7.94-10.07-12.28-14.62-4.6-4.85-9.56-9.91-15.26-11.25-16.75-3.94-21.33,24.99-18.27,40.08,2.28,11.24,9.75,21.29,18.6,26.31Z"/>
          <path class="cls-7" d="m128.43,917.79c2.56,2.73,5.2,5.41,7.99,7.72.61.17,1.22.3,1.84.41,6.08,1.22,12.24.51,17.71-1.83,2.44-1.04,4.9-2.59,5.8-5.51.55-1.73.44-3.74.48-5.67.07-4.23.76-8.34.48-12.61-.26-3.96-1.37-7.88-3-11.58-.86-1.95-1.85-3.82-2.94-5.61h-.02c-.28-.21-.58-.41-.85-.6-6.28-4.22-12.62-8.29-19.03-12.2-2.31-1.41-4.72-2.85-7.18-3.18-2.47-.34-5.06.64-6.12,3.15-.91,2.2-.48,5.03-.47,7.64.04,9.29-5.5,17.47-3.13,26.72,1.33,5.22,4.94,9.39,8.44,13.13Z"/>
          <path class="cls-2" d="m138.26,925.92c6.08,1.22,12.24.51,17.71-1.83,2.44-1.04,4.9-2.59,5.8-5.51.55-1.73.44-3.74.48-5.67.07-4.23.76-8.34.48-12.61-.26-3.96-1.37-7.88-3-11.58-3.47-1.01-7.51.91-8.85,5.09-.56,1.73-.56,3.73-1.02,5.51-1.59,6.14-7.86,7.84-13.41,7.67-.85-.02-1.78-.05-2.43.52-.59.52-.84,1.44-.99,2.33-.89,5.52,1.42,11.85,5.23,16.07Z"/>
        </g>
      </g>
      <g>
        <path class="cls-6" d="m216.57,965.49c-15.9.7-31.73-3.54-46.21-10.16-2.81-1.28-5.61-2.66-8.61-3.34-3.17-.73-6.48-.68-9.71-.39-9.75.89-19.75,4.21-26.85,10.74-1.69,1.53-3.2,3.27-4.52,5.18,2.13-14.59,16.39-26.36,31.13-25.7,6.94.32,13.96,3.03,20.69,1.28,4.24-1.11,7.82-3.87,11.62-6.07,7.41-4.28,16.02-6.39,24.55-6.24,7.51.14,23.99,2.97,30.25,10.05.75.85,1.35,1.76,1.77,2.73,6.25,14.35-13.87,21.47-24.11,21.91Z"/>
        <path class="cls-4" d="m216.57,965.49c-15.9.7-31.73-3.54-46.21-10.16-2.81-1.28-5.61-2.66-8.61-3.34-3.17-.73-6.48-.68-9.71-.39-9.75.89-19.75,4.21-26.85,10.74,3.92-5.3,9.71-9.25,15.88-11.45,10.1-3.58,21.15-3.14,31.78-1.91,10.63,1.24,21.28,3.24,31.97,2.64,8.01-.44,15.95-2.37,23.28-5.64,3.63-1.62,7.16-3.58,10.82-5.13.75.85,1.35,1.76,1.77,2.73,6.25,14.35-13.87,21.47-24.11,21.91Z"/>
      </g>
      <g>
        <path class="cls-6" d="m284.69,1020.6c-4.68-6.48-4.52-15.11-2.19-22.63,2.32-7.53,6.55-14.4,9.57-21.69.82-1.98,1.54-4,2.16-6.07,3.26-10.89,3.57-22.77-.6-32.99-.67-1.64-1.45-3.23-2.35-4.77-14.93,1.25-29.56-4.8-42.65-13.83-7.35-5.07-13.15-8.99-22.54-8.22-6.89.56-14.31,2.94-19.72,7.13-1.38,1.89-2.22,4.01-2.23,6.4-.02,10.27,9.45,21.49,16.59,28.34,1.25,1.19,2.54,2.39,3.83,3.58,7.42,6.85,15.11,13.68,18.95,22.66,3.55,8.28,3.46,17.64,7.05,25.9,2.74,6.25,7.4,11.43,13.13,15.51,6.06,4.33,13.31,7.41,20.67,9.22,8.07,1.99,17.57,3.48,23.21,8.64-6.49-6.54-17.37-9.58-22.89-17.18Z"/>
        <path class="cls-6" d="m310.78,1042c-.82-1.52-1.85-2.85-3.05-4.07,1.22,1.16,2.27,2.5,3.05,4.07Z"/>
        <path class="cls-5" d="m307.57,1037.77c-5.64-5.16-15.14-6.65-23.21-8.64-7.36-1.81-14.62-4.89-20.67-9.22.71-3.03,2.01-6,2.81-9.03,4.48-17.06-7.15-34.08-8.27-51.61-.15-2.16.42-5.01,2.7-5.35.8-.14,1.61.12,2.34.46,6.67,3.24,6.4,13.8,13.38,16.38,3.28,1.21,6.95.1,10.43-.39,2.38-.34,4.77-.37,7.15-.15-.62,2.06-1.34,4.09-2.16,6.07-3.03,7.29-7.25,14.16-9.58,21.69-2.32,7.51-2.48,16.15,2.19,22.63,5.51,7.6,16.39,10.63,22.89,17.18Z"/>
        <path class="cls-5" d="m310.78,1042c-.82-1.52-1.85-2.85-3.05-4.07,1.22,1.16,2.27,2.5,3.05,4.07Z"/>
        <path class="cls-3" d="m248.63,918.63c-7.35-5.07-13.15-8.99-22.54-8.22-6.89.56-14.31,2.94-19.72,7.13-1.38,1.89-2.22,4.01-2.23,6.4-.02,10.27,9.45,21.49,16.59,28.34,1.25,1.19,2.54,2.39,3.83,3.58-.91-5.21-1.81-10.43-2.74-15.64-.76-4.36-1.51-8.88-.25-13.14,1.27-4.26,5.17-8.16,9.87-8.13,2.87.02,5.48,1.43,7.96,2.76,14.45,7.77,30.1,14.26,46.7,15.64,2.5.22,5.1.29,7.54-.12-.67-1.64-1.45-3.23-2.35-4.77-14.93,1.25-29.56-4.8-42.65-13.83Z"/>
      </g>
      <g>
        <g>
          <path class="cls-6" d="m362.92,352.58c2.32.02,4.32-1.33,6.06-3.45,2.73-3.31,4.77-8.52,6.43-13.32,1.48-4.35,2.64-8.38,3.6-10.42,3.99-8.29,7.97-16.65,9.5-25.97,1.26-7.79.77-16.19,1.3-24.23,1.29-18.65,8.18-35.5,20.13-49.35,1.44-1.68,2.96-3.31,4.55-4.9,9.4-9.62,20.78-17.96,30.33-27.49.32-.34.66-.65.98-.99,2.03-2.1,3.98-4.24,5.78-6.48.01-.03.03-.06.06-.06,8.21-10.18,13.64-22.01,11.97-36.05-.51-4.39-1.76-8.99-4.1-13.62-1.27-2.52-2.85-5.06-4.81-7.55-11.82,21.37-32.84,37.18-57.55,50.33-18.34,9.8-38.77,18.12-58.92,26.2-9.62,3.86-19.34,7.74-26.77,13.39-7.23,5.52-12.1,12.6-15.76,20.2-5.98,12.37-8.8,26.41-5.43,41.86,1.54,7.06,4.43,14.42,8.74,21.74,5.08,8.68,12.11,17.26,21.1,25.13,11.34,5.36,28.39,24.96,42.81,25.03Z"/>
          <path class="cls-4" d="m368.98,349.13c5.18-6.31,7.98-19.48,10.03-23.74,3.99-8.29,7.97-16.65,9.5-25.97,1.26-7.79.77-16.19,1.3-24.23,1.29-18.66,8.18-35.5,20.13-49.35,10.41-12.1,24.55-21.83,35.86-33.37,11.29-11.57,19.85-25.44,17.81-42.6-.51-4.39-1.76-8.99-4.1-13.62.13,4.79-.54,9.36-2.3,13.69-3.39,7.99-9.99,14.37-16.76,20.48-17.59,15.94-36.83,30.78-57.58,44.5-22.14,14.62-46.89,29.14-50.42,53.65-1.36,9.38.52,19.77,2.64,30.12,1.92,9.33,4.16,18.97,10.66,28.6,5.34,7.92,13.55,15.6,23.24,21.84Z"/>
          <path class="cls-5" d="m299.01,302.41c15.12-13.1,11.82-36.01,20.05-53.15,8.31-17.31,28.04-28.12,45.93-39.62,13.2-8.5,25.91-18.08,32.16-30.62-18.34,9.8-38.77,18.12-58.92,26.2-9.62,3.86-19.34,7.74-26.77,13.39-7.23,5.52-12.1,12.6-15.76,20.2-5.98,12.37-8.8,26.41-5.43,41.86,1.54,7.06,4.43,14.42,8.74,21.74Z"/>
          <path class="cls-3" d="m451.57,185.99c-2.59,2.19-4.81,4.91-6.76,7.47.32-.34.66-.65.98-.99,2.03-2.1,3.98-4.24,5.78-6.48Z"/>
          <path class="cls-3" d="m375.41,335.81c1.48-4.35,2.64-8.38,3.6-10.42,3.99-8.29,7.97-16.65,9.5-25.97,1.26-7.79.77-16.19,1.3-24.23,1.29-18.65,8.18-35.5,20.13-49.35,1.44-1.68,2.96-3.31,4.55-4.9-21.23,11.81-51.6,17.3-61.03,36.42-6.35,12.89-1.87,29.95,3.81,46.45,2.92,8.47,6.25,17.15,12.62,25.63,1.64,2.15,3.47,4.3,5.53,6.36Z"/>
        </g>
        <g>
          <g>
            <path class="cls-6" d="m279.07,219.5c-1.64,4.59-3.87,8.93-6.88,12.89-6.29,8.28-15.22,13.8-24.28,18.24-1.08.53-2.27,1.09-3.53,1.67-8.54,3.84-20.61,7.79-27.85,1.65-7.37-6.23-8.41-21.77-9.24-30.89-2.83-31.16,2.29-63.28,14.69-92.01,4.33-10,9.49-19.58,14.41-29.28,10.48-20.71,19.84-42.28,26.33-64.65,3.52-12.15,6.2-24.52,7.74-37.12,1.4,19.96,2.8,39.9,4.21,59.86,2.61,37.09,5.22,74.18,7.83,111.25,1.13,16.12,1.89,33.61-3.44,48.39Z"/>
            <path class="cls-3" d="m244.37,252.29c-8.54,3.84-20.61,7.79-27.85,1.65-7.37-6.23-8.41-21.77-9.24-30.89-2.83-31.16,2.29-63.28,14.69-92.01,4.33-10,9.49-19.58,14.41-29.28,10.48-20.71,19.84-42.28,26.33-64.65v.33c.29,21.92-2.48,43.95-8.22,65.14-6.5,24.03-16.72,46.79-23.79,70.64-2.36,7.96-4.38,16.16-4.34,24.45.06,10.51,3.41,20.66,7.9,29.91,2.96,6.07,6.43,11.89,8.56,18.35.69,2.04,1.2,4.18,1.54,6.35Z"/>
          </g>
          <path class="cls-5" d="m279.07,219.5c-.47-4.12-.76-8.28-1.59-12.33-2.3-11.28-8.57-21.1-11.75-32.1-4.66-16.1-2.5-33.56-.29-50.38,2.59-19.66,5.08-39.32,7.75-58.96.33-2.4.82-4.35,1.49-5.87,2.61,37.09,5.22,74.18,7.83,111.25,1.13,16.12,1.89,33.61-3.44,48.39Z"/>
        </g>
        <g>
          <g>
            <path class="cls-6" d="m114.39,242.78c1.68,4.62,3.47,9.19,5.36,13.68,11.4,27.12,26.55,51.49,43.83,68.75,7.16,7.15,15.99,14.62,24.62,19.02,9.95,5.09,19.64,6.13,26.21-2.02,1.07-1.34,2.06-2.91,2.96-4.76,1.45-2.97,2.53-6.59,3.33-10.59,1.33-6.76,1.83-14.63,1.69-22.39-.06-4.56-.34-9.08-.79-13.31,0-.12-.03-.24-.04-.37-2.2-20.34-9.11-41.48-19.11-58.4-5.91-10-12.78-18.46-19.82-26.11-16.78-18.2-34.65-32.09-52-48.24-11.71-10.9-23.37-23.15-33.71-37.72-4.97-7-9.62-14.54-13.84-22.73.21.67.42,1.35.62,2,3.39,10.67,7.88,20.89,10.76,31.72,5.54,20.82,4.63,41.6,7.45,62.58,2.21,16.47,6.74,33.08,12.46,48.88Z"/>
            <path class="cls-5" d="m96.93,120.32c6.47,15.97,15.72,30.43,25.49,42,14.96,17.74,31.43,30.34,47.25,45.26,15.81,14.89,31.67,33.16,42.12,57.57,3.21,7.5,5.8,15.45,7.71,23.51v.02c1.26,5.24,2.23,10.53,2.9,15.78-.06-4.56-.34-9.08-.79-13.31,0-.12-.03-.24-.04-.37-2.2-20.34-9.11-41.48-19.11-58.4-5.91-10-12.78-18.46-19.82-26.11-16.78-18.2-34.65-32.09-52-48.24-11.71-10.9-23.37-23.15-33.71-37.72Z"/>
            <path class="cls-4" d="m114.39,242.78c1.68,4.62,3.47,9.19,5.36,13.68,11.4,27.12,26.55,51.49,43.83,68.75,7.16,7.15,15.99,14.62,24.62,19.02,9.95,5.09,19.64,6.13,26.21-2.02-.75-2.3-1.63-4.57-2.58-6.78-2.29-5.27-5.03-10.14-7.67-14.05-9.34-13.81-20.17-24.13-30.58-35.41-4.99-5.4-9.93-11.11-14.74-17.11-20.28-25.25-38.55-55.75-49.99-90.78-8.54-26.17-13.55-55.19-25.15-78.49,3.39,10.67,7.88,20.89,10.76,31.72,5.54,20.82,4.63,41.6,7.45,62.58,2.21,16.47,6.74,33.08,12.46,48.88Z"/>
          </g>
          <path class="cls-3" d="m119.75,256.47c11.4,27.12,26.55,51.49,43.83,68.75,7.16,7.15,15.99,14.62,24.62,19.02,1.49-.05,2.97-.17,4.44-.34,5.76-.7,11.34-2.36,16.19-5.94,1.04-.77,2.03-1.62,3.01-2.52,4.7-4.3,8.86-10.25,6.03-21.64-1.92-7.72-6.11-14.39-10.47-19.74-6.24-7.65-13.21-13.43-20.21-16.75-5.55-2.64-11.06-3.73-16.53-4.81-2.45-.48-28.29-4.68-28.74-6.32-7.36-2.21-14.75-6.09-22.16-9.7Z"/>
        </g>
        <g>
          <g>
            <path class="cls-6" d="m314.59,319.81c-6.2,6.57-13.3,12.61-21.13,17.09-6.61,3.79-13.75,6.49-21.31,7.44-47.74,6.09-50.62-50.62-41.9-83.51,5.62-21.19,16.57-40.66,30.37-57.8,3.45-4.29,7.09-8.44,10.87-12.44,15.79-16.71,34.21-31.08,47.68-49.74,7.48-10.35,11.54-26.1,22.28-33.63.13,2.4-.86,5.2-2.04,7.98-1.07,2.54-2.27,5.05-2.88,7.22-1.81,6.45-3.2,13.02-4.25,19.62-2.08,13.3-2.73,26.77-2.56,40.21.24,18.81,2.05,37.54,3.67,56.29.46,5.36.92,10.74,1.3,16.11,1.9,25.83-1.75,45.7-20.11,65.17Z"/>
            <path class="cls-4" d="m314.59,319.81c-6.2,6.57-13.3,12.61-21.13,17.09-6.61,3.79-13.75,6.49-21.31,7.44-47.74,6.09-50.62-50.62-41.9-83.51,5.62-21.19,16.57-40.66,30.37-57.8.47,3.87.76,7.95,1.46,10.52,1.92,6.98,4.18,14.01,3.86,21.34-.29,6.33-2.53,12.47-2.5,18.81.01,6.33,3.39,13.49,9.62,14.6,3.37.61,6.75-.67,9.92-1.99,14.19-5.94,27.87-13.09,40.81-21.37,3.26-2.06,6.46-4.2,9.6-6.4.46,5.36.92,10.74,1.3,16.11,1.9,25.83-1.75,45.7-20.11,65.17Z"/>
          </g>
          <path class="cls-5" d="m314.59,319.81c-6.2,6.57-13.3,12.61-21.13,17.09.38-5.43,4.24-10.87,7.62-15.59,15.74-22,23.76-49.36,22.71-76.37-.18-5.33-.75-10.65-1.66-15.91-1.67-9.57-4.48-18.95-5.56-28.59-1.77-15.66,1.08-31.34,5.12-46.42,2.9-10.85,5.25-27.36,13.43-35.62,1.21-1.22,2.67-2.3,4.28-3.19-1.07,2.54-2.27,5.05-2.88,7.22-1.81,6.45-3.2,13.02-4.25,19.62-2.08,13.3-2.73,26.77-2.56,40.21.24,18.81,2.05,37.54,3.67,56.29.46,5.36.92,10.74,1.3,16.11,1.9,25.83-1.75,45.7-20.11,65.17Z"/>
        </g>
        <g>
          <path class="cls-6" d="m18.2,227.47c1.54.99,3.05,2.02,4.52,3.1,13.08,9.33,24.28,21.28,32.74,34.93,4.2,6.77,7.76,13.99,13.01,19.99,6.11,6.97,14.18,11.89,21.8,17.17,7.86,5.45,15.37,11.42,22.05,18.26,18.94,19.38,30.23,44.74,43.59,68.33,13.36,23.59,30.47,46.95,55.53,57.3,3.59,1.49,7.3,2.68,10.97,3.96,3.24,1.14,6.45,2.35,9.51,3.9l-10.34-7.55c7.27-35.19.8-73.05-17.79-103.83-18.58-30.77-49.08-54.14-83.61-64.07-9.77-2.81-19.82-4.58-29.42-7.9-9.31-3.19-18.13-7.84-26.06-13.68-15.02-11.09-28.05-27.08-46.51-29.92Z"/>
          <path class="cls-4" d="m18.2,227.47c1.54.99,3.05,2.02,4.52,3.1,5.81,2.69,11.31,6.03,16.36,9.93,11.27,8.7,20.27,20.03,31.41,28.87,22.02,17.49,51.18,24.37,72.48,42.74,23.56,20.34,33.99,51.49,45.36,80.47,7.22,18.38,15.68,36.88,28.56,52.05,1.76,2.07,3.61,4.04,5.53,5.87,3.24,1.14,6.45,2.35,9.51,3.9l-10.34-7.55c7.27-35.19.8-73.05-17.79-103.83-18.58-30.77-49.08-54.14-83.61-64.07-9.77-2.81-19.82-4.58-29.42-7.9-9.31-3.19-18.13-7.84-26.06-13.68-15.02-11.09-28.05-27.08-46.51-29.92Z"/>
        </g>
        <g>
          <path class="cls-6" d="m258.85,349.96c-1.34,10.52-6.36,23.08-15.2,29.6-9.14,6.75-17.35-.07-24.23-6.71-16.05-15.54-27.76-35.36-35.47-56.2-10.19-27.59-13.68-57.23-14.39-86.61l-.04-2.21c-.17-8.73-.06-17.48.83-26.15.3-2.88.67-5.74,1.16-8.6,3.33-19.9,11.5-38.61,19.91-56.92.35,11.06,6.07,21.13,11.19,30.95,13.88,26.59,24.39,54.69,33.63,83.25,5.35,16.52,10.26,33.23,15.16,49.86,1.24,4.19,2.47,8.44,3.59,12.69,3.22,12.21,5.44,24.63,3.87,37.04Z"/>
          <path class="cls-3" d="m258.85,349.96c-1.34,10.52-6.36,23.08-15.2,29.6-9.14,6.75-17.35-.07-24.23-6.71-16.05-15.54-27.76-35.36-35.47-56.2-10.19-27.59-13.68-57.23-14.39-86.61l-.04-2.21c.84,4.6,1.57,8.71,2.72,10.88,3.37,6.39,9.62,11.68,16.83,12.05,2.81.13,5.74-.46,8.37.53,3.21,1.2,5.16,4.4,6.65,7.49,6,12.31,9.25,26.69,19.54,35.73,7.08,6.25,16.52,8.99,24.67,13.77,2.33,1.37,4.56,2.91,6.67,4.63,3.22,12.21,5.44,24.63,3.87,37.04Z"/>
          <path class="cls-5" d="m236.23,250.37c-10.68-8.02-18.03-20.57-23.32-33.13-6.71-15.94-11.31-33.05-21.24-47.21-.9-1.29-1.92-2.62-3.41-3.19-2.46-.94-5.3.65-6.71,2.88-1.4,2.24-1.73,4.97-2.15,7.58-.7,4.23-3.17,20.77-9.05,24.39.3-2.88.67-5.74,1.16-8.6,3.33-19.9,11.5-38.61,19.91-56.92.35,11.06,6.07,21.13,11.19,30.95,13.88,26.59,24.39,54.69,33.63,83.25Z"/>
        </g>
        <g>
          <g>
            <path class="cls-6" d="m258.04,436.51c-1.4,4.44-3.4,8.75-6.39,12.29-8.12,9.59-23.69,11.7-34.07,4.62-10.2-6.96-13.97-19.98-21.04-30.11-9.53-13.67-25.22-21.99-41.32-26.31-16.08-4.33-32.89-5.13-49.47-6.78-20.53-2.05-37.99-3.5-55.91-14.76-12.06-7.58-27.28-20.27-33.08-34.71-.93-2.3-1.62-4.64-2.01-7.01,7.14,1.03,14.37,4.93,21.91,6,5.61.8,11.28,1.09,16.95,1.21,2.55.04,5.11.07,7.66.07,27.76.04,55.75-.85,83.28,3.4,20.04,3.07,40.21,4.28,59.45,10.5,4.48,1.46,8.94,3.19,13.31,5.27,19.56,9.32,36.77,25.86,41.77,46.94.95,3.99,1.43,8.1,1.46,12.19.07,5.81-.78,11.63-2.52,17.18Z"/>
            <path class="cls-4" d="m258.03,436.51c-1.4,4.44-3.39,8.75-6.39,12.29-8.12,9.59-23.69,11.7-34.07,4.62-10.2-6.96-13.97-19.98-21.04-30.11-9.53-13.67-25.22-21.99-41.32-26.31-16.09-4.33-32.89-5.13-49.47-6.78-20.53-2.05-37.99-3.5-55.91-14.76-12.06-7.58-27.28-20.27-33.08-34.71,4.39,2.91,9.01,8.81,10.84,10.6,7.13,6.83,15.66,12.25,24.98,15.56,13.72,4.9,28.53,5.44,43.08,5.92,14.61.49,29.3.96,43.81-.77,10.29-1.23,20.39-3.54,30.62-5.07,9.88-1.48,21.87-1.33,27.51,6.9,3.78,5.53,3.29,12.88,5.67,19.14,4.61,12.17,18.84,17.65,31.77,19.16,7.4.85,15.2.95,21.73,4.53,1.35.75,2.6,1.62,3.77,2.61.07,5.81-.78,11.63-2.52,17.18Z"/>
          </g>
          <path class="cls-5" d="m204.01,354.92c-.17.19-.36.36-.56.53-1.35,1.05-3.2,1.04-4.91.98-24.48-.75-48.93-1.51-73.41-2.28-21.16-.66-43.16-1.43-63.02-9.56-2.14-.87-5.31-2.09-8.5-3.65,2.55.04,5.11.07,7.66.07,27.76.04,55.75-.85,83.28,3.4,20.04,3.07,40.21,4.28,59.45,10.5Z"/>
        </g>
        <g>
          <path class="cls-6" d="m570.41,280.96c-1.87.45-3.73.95-5.57,1.52-16.23,4.75-31.52,12.75-44.66,23.4-6.52,5.27-12.56,11.23-19.86,15.37-8.5,4.82-18.22,6.92-27.63,9.52-9.7,2.7-19.24,6.03-28.26,10.52-25.55,12.71-45.55,34.02-67.01,52.85-21.46,18.83-46.56,36.14-75.07,37.75-4.08.24-8.19.14-12.28.14-3.61.02-7.23.1-10.81.58l12.9-3.92c4.96-37.51,24.51-72.93,53.66-97.09,29.13-24.17,67.56-36.84,105.34-34.76,10.69.59,21.3,2.31,31.99,2.34,10.36.05,20.75-1.51,30.65-4.58,18.78-5.82,37.28-17.22,56.61-13.64Z"/>
          <path class="cls-4" d="m570.41,280.96c-1.87.45-3.73.95-5.57,1.52-6.71.66-13.33,2.08-19.71,4.21-14.22,4.75-27.09,12.9-41.23,17.83-27.96,9.77-59.34,6.51-86.88,17.4-30.47,12.07-51.63,39.43-72.98,64.32-13.55,15.78-28.36,31.25-46.43,41.87-2.47,1.45-4.98,2.77-7.53,3.93-3.61.02-7.23.1-10.81.58l12.9-3.92c4.96-37.51,24.51-72.93,53.66-97.09,29.13-24.17,67.56-36.84,105.34-34.76,10.69.59,21.3,2.31,31.99,2.34,10.36.05,20.75-1.51,30.65-4.58,18.78-5.82,37.28-17.22,56.61-13.64Z"/>
        </g>
        <g>
          <path class="cls-6" d="m500.83,533.8c-10.87,3.04-23.4.49-32.07-6.54-4.14-3.36-7.38-7.6-11.16-11.33-1.86-1.84-3.82-3.52-5.88-5.07,0,0,0-.02-.02-.02-14.05-10.69-32.4-15.8-49.62-21.57-6.2-2.08-12.5-4.38-17.43-8.52-3.92-3.32-6.65-7.55-9.17-11.96-2.24-3.92-4.35-7.99-6.97-11.65-4.96-6.95-12.02-12.53-20.07-16.06-4.25-1.88-8.8-3.18-13.45-3.81-8.45-1.14-17.22-.05-25.06,2.99-3.22,1.23-13.62,9.68-16.95,8.33-5.22-2.15.2-16.24,1.57-19.63,3.04-7.53,7.91-14.37,13.89-20.08,9.45-9.05,21.58-15.36,34.35-19.56,16.16-5.33,33.96-7.36,50.63-3.3,16.67,4.07,32.04,14.81,38.74,29.77,2.01,4.51,3.24,9.3,4.66,14,1.16,3.97,2.46,7.87,4.47,11.54,7.24,13.17,22.55,21.22,29.47,34.52,7.59,14.61,3.88,33.37,14.27,46.38,4.03,5.07,9.81,8.66,15.8,11.57Z"/>
          <path class="cls-3" d="m436.84,429.78c-1.46.25-2.93.42-4.38.54-14.04,1.14-28.04-2.29-42.12-3.28-14.06-.99-29.6,1.07-39.08,10.79-1.01,1.03-1.92,2.12-2.8,3.24-4.25-1.88-8.8-3.18-13.45-3.81-8.45-1.14-17.22-.05-25.06,2.99-3.22,1.23-13.62,9.68-16.95,8.33-5.22-2.15.2-16.24,1.57-19.63,3.04-7.53,7.91-14.37,13.89-20.08,9.45-9.05,21.58-15.36,34.35-19.56,16.16-5.33,33.96-7.36,50.63-3.3,16.67,4.07,32.04,14.81,38.74,29.77,2.01,4.51,3.24,9.3,4.66,14Z"/>
          <path class="cls-5" d="m451.71,510.84c-14.05-10.69-32.4-15.8-49.62-21.57-6.2-2.08-12.5-4.38-17.43-8.52-3.92-3.32-6.65-7.55-9.17-11.96,17.61,3.44,35.98,3.27,53.44-.5,6.01-1.29,13.48-2.56,17.39,1.99,2.08,2.44,2.32,5.79,2.25,8.91-.2,10.75-2.62,22.3,3.12,31.66Z"/>
        </g>
        <g>
          <g>
            <path class="cls-6" d="m379.83,326.13c-.97,4.07-2.13,8.1-3.46,12.08-7.97,24-22.16,46-41.59,62.13-8.06,6.69-18.4,13.78-29.41,18.27-12.69,5.18-26.26,6.9-38.19.54-1.95-1.04-3.85-2.29-5.71-3.79-2.99-2.39-5.66-5.37-8.04-8.7-3.99-5.62-7.14-12.26-9.34-18.86-1.32-3.88-2.32-7.74-2.98-11.36-.02-.11-.03-.21-.06-.31-3.12-17.46.26-35.99,9.36-51.22,5.39-9,12.61-16.77,20.35-23.87,18.43-16.9,39.76-30.23,59.63-45.43,13.42-10.26,26.35-21.66,36.67-34.93,4.96-6.37,9.3-13.17,12.81-20.49-.09.59-.18,1.18-.27,1.75-1.57,9.35-4.84,18.41-5.63,27.86-1.51,18.15,6.21,35.71,8.64,53.77,1.92,14.17.55,28.66-2.78,42.56Z"/>
            <path class="cls-5" d="m367.05,220.67c-4.34,14.11-13.14,27.18-23.57,37.85-15.96,16.35-35.69,28.46-53.75,42.49-18.06,14.01-35.15,30.88-42.6,52.5-2.29,6.64-3.54,13.61-3.79,20.62v.02c-.18,4.55.06,9.13.72,13.64-1.32-3.88-2.32-7.74-2.98-11.36-.02-.11-.03-.21-.06-.31-3.12-17.46.26-35.99,9.36-51.22,5.39-9,12.61-16.77,20.35-23.87,18.43-16.9,39.76-30.23,59.63-45.43,13.42-10.26,26.35-21.66,36.67-34.93Z"/>
            <path class="cls-4" d="m379.83,326.13c-.97,4.07-2.13,8.1-3.46,12.08-7.97,24-22.16,46-41.59,62.13-8.06,6.69-18.4,13.78-29.41,18.27-12.69,5.18-26.26,6.9-38.19.54.37-2.02.92-4.02,1.6-5.97,1.65-4.67,4.07-9.04,6.66-12.59,9.12-12.52,21.46-22.22,32.89-32.69,5.48-5.02,10.8-10.29,15.84-15.8,21.27-23.18,38.03-50.65,43.62-81.37,4.17-22.95,2.38-48.01,11.81-68.79-1.57,9.35-4.84,18.41-5.63,27.86-1.51,18.15,6.21,35.71,8.64,53.77,1.92,14.17.55,28.66-2.78,42.56Z"/>
          </g>
          <path class="cls-3" d="m376.37,338.2c-7.97,24-22.16,46-41.59,62.13-8.06,6.69-18.4,13.78-29.41,18.27-2.15.08-4.31.11-6.46.09-8.46-.1-16.99-1.02-25.04-3.65-1.73-.56-3.41-1.2-5.09-1.88-8.06-3.24-15.86-7.93-15.32-17.85.37-6.72,4.31-12.74,8.91-17.65,6.58-7.03,14.79-12.54,23.79-15.96,7.14-2.72,14.7-4.12,22.21-5.51,3.36-.62,39.1-6.41,39.24-7.84,9.86-2.51,19.26-6.44,28.76-10.15Z"/>
        </g>
        <g>
          <path class="cls-6" d="m239.79,463.83c-1.08,1.13-3.22,1.64-5.91,1.77-4.2.21-9.74-.55-14.73-1.35-4.52-.74-8.6-1.53-10.84-1.75-9.16-.85-18.37-1.72-27.27-4.11-7.43-2-14.54-5.05-21.84-7.48-16.95-5.63-35-7.93-52.81-6.79-2.15.13-4.31.32-6.46.56-12.9,1.32-25.62,4.03-38.51,5.46-.45.04-.88.1-1.33.15-2.8.28-5.61.5-8.43.62-.03,0-.07,0-.09,0-12.82.56-25.77-.78-37.28-6.29-3.6-1.72-7.04-3.86-9.98-6.54-1.61-1.46-3.08-3.07-4.32-4.85,24.34,1.44,48.2-3.43,71.49-10.97,17.32-5.59,34.33-12.67,51-19.71,7.96-3.36,15.99-6.76,24.48-8.46,8.27-1.65,16.8-1.63,25.2-.85,13.68,1.25,27.32,4.59,39.25,11.39,5.45,3.11,10.52,6.97,14.88,11.5,5.18,5.36,9.35,11.64,11.97,18.62-.7,7.28,8.34,22.08,1.54,29.08Z"/>
          <path class="cls-4" d="m233.88,465.61c-8,.39-20.87-2.67-25.57-3.1-9.16-.85-18.37-1.72-27.27-4.11-7.42-2-14.54-5.05-21.84-7.48-16.95-5.63-35-7.93-52.81-6.79-15.55.98-30.81,4.56-46.3,6.16-15.51,1.58-31.74,1.08-45.8-5.66-3.6-1.72-7.04-3.86-9.98-6.54,4.14,1.67,8.45,2.87,13.09,3.47,8.61,1.04,17.34-.02,25.92-1.25,22.34-3.17,44.5-7.5,66.39-12.93,23.35-5.81,47.85-12.91,71-6.41,8.87,2.48,17.07,6.87,25.13,11.36,7.26,4.06,14.63,8.36,19.98,14.73,4.39,5.23,7.22,11.77,8.07,18.55Z"/>
          <path class="cls-5" d="m226.29,416.14c-18.67,2.92-37.17-6.35-56.1-8.11-19.12-1.78-37.98,4.14-56.57,8.93-13.73,3.54-28.17,6.47-42.13,5.3,17.32-5.59,34.33-12.67,51-19.71,7.96-3.36,15.99-6.76,24.48-8.46,8.27-1.65,16.8-1.63,25.2-.85,13.68,1.25,27.32,4.59,39.25,11.39,5.45,3.11,10.52,6.97,14.88,11.5Z"/>
          <path class="cls-3" d="m51.67,450.9c3.15-.52,6.59-.68,9.76-.77-.45.04-.88.1-1.33.15-2.8.28-5.61.5-8.43.62Z"/>
          <path class="cls-3" d="m219.16,464.25c-4.52-.74-8.6-1.53-10.84-1.75-9.16-.85-18.37-1.72-27.27-4.11-7.43-2-14.54-5.05-21.84-7.48-16.95-5.63-35-7.93-52.81-6.79-2.15.13-4.31.32-6.46.56,20.45-6.31,39.72-19.16,60.96-17.31,14.31,1.25,27.13,9.13,38.87,17.4,6.03,4.25,12.04,8.76,16.44,14.68,1.1,1.51,2.11,3.11,2.94,4.8Z"/>
        </g>
        <g>
          <g>
            <path class="cls-4" d="m240.65,486.73c.88.93,2.18,1.23,3.41,1.49,4.15.85,8.34,1.51,12.53,2.14,11.64-2.52,24.3-1.93,35.34.08,7.54,1.37,14.71,3.27,21.67,5.66.63-4.4,1.62-8.75,2.94-12.99,1.03-3.38,2.29-6.66,3.75-9.86,6.65-14.65,17.53-27.31,31.23-34.92,1.56-.87,3.26-1.8,4.03-3.46,1.21-2.61-.41-5.63-2.01-7.98-4.52-6.68-9.43-13.06-14.69-19.1-3.39-3.89-7-7.69-11.27-10.4-.82-.52-1.66-.99-2.54-1.42-4.84-2.36-10.24-3.09-15.57-3.43-11.97-.79-24.75.44-34.48,7.79-6.36,4.81-10.87,11.81-15.13,18.74-11.82,19.29-23.11,41.08-20.51,63.87.15,1.35.4,2.82,1.31,3.8Z"/>
            <path class="cls-3" d="m240.65,486.73c.88.93,2.18,1.23,3.41,1.49,4.15.85,8.34,1.51,12.53,2.14,11.64-2.52,24.3-1.93,35.34.08,7.54,1.37,14.71,3.27,21.67,5.66.63-4.4,1.62-8.75,2.94-12.99-7.21-6.24-15.17-11.56-21.92-18.34-8.44-8.49-15.1-20.55-12.92-32.62,1.73-9.5,8.62-17.09,16.26-22.46,6.77-4.74,14.26-8,22.15-10.06,2.43-.61,5.11-1.17,7.46-2.24-.82-.52-1.66-.99-2.54-1.42-4.84-2.36-10.24-3.09-15.57-3.43-11.97-.79-24.75.44-34.48,7.79-6.36,4.81-10.87,11.81-15.13,18.74-11.82,19.29-23.11,41.08-20.51,63.87.15,1.35.4,2.82,1.31,3.8Z"/>
            <path class="cls-6" d="m418.14,513.52c-1.54.47-3.09.73-4.64.81-10.2.62-20.35-6.2-27.33-14.5-8.06-9.57-13.64-21.28-22.28-30.26-6-6.28-13.28-11.01-19.86-16.63-1.9-1.63-3.75-3.36-5.48-5.2-4.29-4.53-7.82-9.79-9.43-15.89-2.28-8.66-.55-18.5-4.78-26.3-1.25-2.29-2.91-4.2-4.86-5.76-5.76-4.58-14.04-6.03-21.51-5.4-5.52.46-11.04,1.82-15.91,4.56-11.04,6.24-17.4,18.65-23.11,30.37-4.24,8.65-8.46,17.33-12.7,25.98-1.91,3.92-4.13,11.4-6.22,9.25-.51-.5-1.01-1.55-1.47-3.33-3.87-14.24,11.49-38.18,18.99-48.88,11.25-16.02,28.62-28.63,47.57-28.54,17.37.07,33.12,10.47,46.78,21.73,2.81,2.32,5.64,4.72,8.62,6.85,3.39,2.42,6.97,4.43,10.91,5.49,6.08,1.64,13.49,1.35,17.21,6.66,1.62,2.32,2.15,5.27,2.56,8.11,1.48,10.3,2.09,20.76,1.8,31.17-.2,7.21-.82,14.53.55,21.59,2.55,13.11,12.37,24.35,24.58,28.11Z"/>
          </g>
          <path class="cls-5" d="m418.14,513.52c-1.54.47-3.09.73-4.64.81-10.95-5.59-20.29-14.96-27.05-25.72-9.49-15.07-14.56-32.73-18.29-50.36-1.77-8.34-3.31-16.84-6.9-24.5-.21-.45-.45-.91-.73-1.37,3.39,2.42,6.97,4.43,10.91,5.49,6.08,1.64,13.49,1.35,17.21,6.66,1.62,2.32,2.15,5.27,2.56,8.11,1.48,10.3,2.09,20.76,1.8,31.17-.2,7.21-.82,14.53.55,21.59,2.55,13.11,12.37,24.35,24.58,28.11Z"/>
        </g>
        <g>
          <g>
            <path class="cls-6" d="m246.31,486.19s.01.05,0,.07c-.3,2.44-.72,4.83-1.32,6.98,0,.02,0,.03-.02.07-.53,1.92-1.19,3.63-2.01,5.01-.02.02-.02.03-.02.03-.35.63-.76,1.18-1.19,1.65-7.64-4.78-3.82-19.08-12.63-22.55-4.42-1.76-9.2,1.35-12.73,4.56-7.24,6.58-13.37,14.17-18.86,22.27h-.02s0,.03-.02.05c-5.43,7.98-10.29,16.45-15.05,24.84-9.61,16.93-19.29,34.19-33.33,47.66-3.51,3.38-7.35,6.48-11.45,9.22-12.26,8.2-26.76,12.96-41.21,11.02,5.29-2.86,8.82-7.52,11.32-12.98,2.76-6.08,4.22-13.17,5.37-19.77,2.51-14.46,5-28.93,7.51-43.37,3.55-20.44,7.58-41.95,21.05-57.7,10.98-12.82,26.88-20.19,42.24-27.16,5.66-2.55,11.59-5.18,17.77-4.76,6.22.43,11.78,3.88,17.05,7.23,1.58,1.01,3.19,2.04,4.78,3.12,10.03,6.75,19.78,14.97,22.47,26.1.27,1.1.47,2.25.59,3.41.37,3.58.39,9.4-.29,15.02Z"/>
            <path class="cls-3" d="m246,490.11c-.07.35-.46,1.6-1.02,3.12,0,.02,0,.03-.02.07-.59,1.67-1.36,3.65-2.01,5.01-.02.02-.02.03-.02.03-.52,1.08-.96,1.79-1.19,1.65-7.64-4.78-3.82-19.08-12.63-22.55-4.42-1.76-9.2,1.35-12.73,4.56-7.24,6.58-13.37,14.17-18.86,22.27,5.9-10.04,15.48-20.13,19.57-24.11,8.01-7.82,20.4-17.63,27.25-2.95,1.25,2.67,1.93,5.87,1.97,8.99.01.04.01.05,0,.07.03,1.32-.08,2.61-.3,3.86Z"/>
            <path class="cls-4" d="m223.53,441.65c-6.11,3.55-12.69,6.39-18.96,9.67-15.56,8.12-29.71,19.39-39.7,33.83-12.69,18.34-18.03,40.63-26.49,61.26-4.85,11.98-13.08,32.22-26.51,36.66-1.45.48-2.82.81-4.1.99,2.76-6.08,4.22-13.17,5.37-19.77,2.51-14.46,5-28.93,7.51-43.37,3.55-20.44,7.58-41.95,21.05-57.7,10.98-12.82,26.88-20.19,42.24-27.16,5.66-2.55,11.59-5.18,17.77-4.76,6.22.43,11.78,3.88,17.05,7.23,1.58,1.01,3.19,2.04,4.78,3.12Z"/>
          </g>
          <path class="cls-5" d="m197.51,504.26s0,.03-.02.05c-5.43,7.98-10.29,16.45-15.05,24.84-9.61,16.93-19.29,34.19-33.33,47.66-3.51,3.38-7.35,6.48-11.45,9.22.24-8.91,4.29-17.65,9.54-25,6.3-8.84,14.31-16.34,20.88-24.98,6.88-9.02,14-25.66,24.74-30.7,1.81-.85,3.37-1.18,4.69-1.09Z"/>
        </g>
        <g>
          <g>
            <path class="cls-3" d="m285.56,508.49c.98-7.09,6.65-12.59,12.54-16.67,5.88-4.08,12.45-7.48,16.94-13.06.9-1.12,1.74-2.42,1.75-3.86.01-2.9-3.15-4.67-5.91-5.55-7.83-2.5-16.11-3.13-24.31-3.75-3.21-.24-6.5-.48-9.62.35-3.07.81-5.78,2.6-8.43,4.35-5.72,3.8-11.58,7.73-15.51,13.35-3.07,4.39-6.25,8.88-9.21,13.29-3.5,5.2-3.28,4.98,3.08,5.38,3.4.22,39.11,3.09,38.69,6.15Z"/>
            <path class="cls-6" d="m394.29,567.16c-.34-1.95-1-3.83-1.92-5.57-2.38-4.58-6.48-8.33-11.01-10.96-6.25-3.62-13.34-5.47-20.21-7.68-17.46-5.59-35.01-14.46-44.76-30-4.36-6.95-6.93-14.86-10.74-22.13-.52-.98-1.06-1.95-1.64-2.91-3.71-6.15-8.78-11.66-15.51-13.9-8.37-2.79-17.8.11-24.89,5.36-8.34,6.2-12.18,16.6-19.98,22.74-.86-.75-1.21-1.85-1.14-3.18.25-8.28,15.5-25.85,19.12-29.46,3.66-3.62,7.85-6.98,12.85-8.2,9.92-2.41,20.02,4.12,30.2,3.36,1.82-.13,3.6-.49,5.37-.99,5.26-1.42,10.34-3.85,15.77-4.11,6.55-.3,12.87,2.58,18.34,6.19,3.77,2.49,7.34,5.4,10.03,9.03,3.89,5.3,5.72,11.79,7.49,18.13,3.28,11.86,6.86,24.18,15.11,33.33,4.02,4.46,9.02,7.99,12.71,12.72,6.11,7.84,7.96,18.79,4.82,28.22Z"/>
          </g>
          <path class="cls-4" d="m394.29,567.16c-.34-1.95-1-3.83-1.92-5.57,0-3.1-.41-6.17-1.4-9.17-3.18-9.72-11.73-16.55-19.84-22.78-8.3-6.36-16.59-12.74-24.91-19.11-5.33-4.1-10.75-8.28-14.78-13.68-4.44-5.96-6.86-13.03-10.23-19.57-2.7-5.23-7.93-9.11-11.2-13.63,5.26-1.42,10.34-3.85,15.77-4.11,6.55-.3,12.87,2.58,18.34,6.19,3.77,2.49,7.34,5.4,10.03,9.03,3.89,5.3,5.72,11.79,7.49,18.13,3.28,11.86,6.86,24.18,15.11,33.33,4.02,4.46,9.02,7.99,12.71,12.72,6.11,7.84,7.96,18.79,4.82,28.22Z"/>
        </g>
      </g>
      <g>
        <path class="cls-6" d="m340.27,986.52c-.76,1.67-1.64,3.24-2.62,4.77-2.6,4.12-5.79,7.9-8.52,11.96-1.61,2.38-3.09,4.93-3.47,7.77-.65,4.95,2.14,9.64,4.83,13.85-7.76-6.06-13.31-14.93-15.39-24.56-1.2-5.53-1.35-11.48-2.98-16.8-.59-2-1.4-3.92-2.55-5.69-2.92-4.52-7.64-7.51-12.32-10.13-2.54-1.42-5.52-3.29-8.28-5.41-8.33-6.36-14.74-15.03-1.68-21.25,12.07-5.77,27.12-5.9,38.68,1.19,9.89,6.08,16.29,17.37,17.05,28.84.34,5.27-.5,10.61-2.73,15.47Z"/>
        <path class="cls-5" d="m325.67,1011.02c-.65,4.95,2.14,9.64,4.83,13.85-7.76-6.06-13.31-14.93-15.39-24.56-1.2-5.53-1.35-11.48-2.98-16.8,3.76-5.72,2.27-13.45,3.25-20.32.16-1.18.51-2.48,1.5-3.1,1.45-.91,3.36.11,4.4,1.43,3.53,4.41,1.74,11,3.53,16.36.2.66.62,1.39,1.3,1.43.8.04,1.27-.88,1.84-1.44,1.61-1.52,4.42-.13,5.37,1.84.97,1.99.86,4.31,1.49,6.44.56,1.88,1.66,3.52,2.85,5.13-2.6,4.12-5.79,7.9-8.52,11.96-1.61,2.38-3.09,4.93-3.47,7.77Z"/>
        <path class="cls-3" d="m343,971.06c-1.72.03-3.41-.35-4.94-1.23-5.95-3.45-6.56-11.92-11.19-17.01-4.61-5.07-12.27-5.81-19.15-5.65-3.24.08-6.76.38-9.23,2.51-3.98,3.39-4.18,10.49-9.03,12.44-.16.06-.34.13-.5.17-8.33-6.36-14.74-15.03-1.68-21.25,12.07-5.77,27.12-5.9,38.68,1.19,9.89,6.08,16.29,17.37,17.05,28.84Z"/>
      </g>
    </g>
  </g>
</svg>